<svg width="168" height="100" viewBox="0 0 168 100" fill="none" xmlns="http://www.w3.org/2000/svg">
<path d="M167.621 77.4696C167.718 77.5023 167.724 77.6642 167.632 77.7669C167.594 77.8087 167.231 78.6888 166.824 79.7229C165.779 82.3796 162.419 90.8509 162.334 91.0429C162.141 91.4784 160.858 94.7122 160.683 95.2021C160.572 95.5106 160.3 96.1229 160.077 96.5629C159.505 97.69 158.693 98.5063 157.62 99.0304C156.723 99.4693 156.145 99.629 155.22 99.6936C154.181 99.7663 153.209 99.5722 152.22 99.0944C151.442 98.718 150.9 98.3479 150.9 98.1915C150.9 98.1491 151.104 97.7653 151.353 97.3388C151.602 96.912 151.971 96.2664 152.173 95.904C152.375 95.5416 152.566 95.2447 152.596 95.244C152.627 95.2434 152.807 95.3469 152.996 95.4743C153.494 95.8085 153.885 95.9528 154.452 96.0109C155.632 96.1317 156.447 95.5648 157.113 94.1583C157.385 93.5824 157.462 93.3402 157.422 93.1799C157.392 93.0626 156.939 91.9656 156.414 90.7421C155.89 89.5188 155.46 88.5005 155.46 88.4794C155.46 88.4584 155.391 88.2885 155.307 88.1021C155.107 87.6564 154.914 87.1991 153.9 84.7629C153.09 82.8175 152.386 81.1455 151.676 79.4829C151.497 79.065 151.316 78.6772 151.274 78.6212C151.225 78.5552 151.204 78.9564 151.214 79.7612C151.22 80.1751 151.225 80.589 151.23 81.0029C150.549 81.0029 149.867 81.0029 149.185 81.0029C148.504 81.0029 147.822 81.0029 147.14 81.0029C147.14 83.1096 147.14 85.2162 147.14 87.3229C147.14 89.4296 147.14 91.5362 147.14 93.6429C146.474 93.6429 145.807 93.6429 145.141 93.6429C144.474 93.6429 143.808 93.6429 143.141 93.6429C143.135 91.5429 143.128 89.4429 143.121 87.3429C143.114 85.2429 143.107 83.1429 143.1 81.0429C142.76 81.0356 142.42 81.028 142.08 81.0205C141.74 81.013 141.4 81.0055 141.06 80.9981C141.06 80.5189 141.06 80.0397 141.06 79.5605C141.06 79.0813 141.06 78.6021 141.06 78.1229C141.407 78.1229 141.754 78.1229 142.1 78.1229C142.447 78.1229 142.794 78.1229 143.14 78.1229C143.143 78.0496 143.145 77.9762 143.147 77.9029C143.151 77.782 143.15 77.5208 143.144 77.3229C143.138 77.125 143.171 76.5439 143.216 76.0319C143.386 74.1253 144.052 72.9389 145.488 71.9842C147.068 70.9341 149.364 70.7002 151.231 71.3991C152.029 71.6973 152 71.562 151.626 73.2468C151.445 74.0586 151.284 74.7626 151.266 74.8112C151.245 74.8698 151.038 74.8332 150.647 74.7018C149.798 74.4159 148.912 74.3764 148.325 74.5986C147.421 74.9407 147.14 75.5429 147.14 77.1389C147.14 77.4679 147.14 77.7968 147.14 78.1258C147.787 78.1187 148.434 78.1114 149.08 78.1044C150.758 78.0858 151.016 78.0668 150.989 77.9629C150.972 77.897 150.941 77.7613 150.92 77.6616C150.907 77.601 150.894 77.5407 150.881 77.4802C151.568 77.4872 152.256 77.4944 152.943 77.5016C153.63 77.5087 154.318 77.5159 155.005 77.5229C155.183 77.9762 155.361 78.4296 155.54 78.8829C156.426 81.1375 157.304 83.4083 158.974 87.7583C159.226 88.4157 159.467 88.9652 159.509 88.9792C159.552 88.9933 159.652 88.7975 159.732 88.5439C159.812 88.2903 159.914 87.993 159.958 87.8829C160.039 87.685 160.854 85.3887 160.981 85.0029C161.017 84.8928 161.179 84.4429 161.34 84.0029C161.502 83.5629 161.76 82.8429 161.915 82.4029C162.069 81.9629 162.464 80.865 162.793 79.9629C163.121 79.0608 163.455 78.1429 163.534 77.9229C163.582 77.7896 163.63 77.6562 163.678 77.5229C164.322 77.5096 164.966 77.4962 165.61 77.4829C166.672 77.4608 167.578 77.4549 167.621 77.4696Z" fill="#262E01"/>
<path d="M99.2179 82.7229C99.2507 83.1189 99.2825 85.738 99.2888 88.5429C99.2928 90.2429 99.2965 91.9429 99.3003 93.6429C98.6336 93.6429 97.967 93.6429 97.3003 93.6429C96.6336 93.6429 95.967 93.6429 95.3003 93.6429C95.3002 92.1029 95.2998 90.5629 95.2997 89.0229C95.2993 86.3004 95.2657 84.1895 95.2181 83.8829C95.1085 83.1807 94.6633 82.2879 94.2381 81.9173C93.4565 81.2365 92.2827 80.9127 91.2032 81.0802C89.8987 81.2824 88.8125 82.0756 88.241 83.2429C87.7074 84.3324 87.7027 84.3834 87.7014 89.2629C87.7011 90.7229 87.7008 92.1829 87.7003 93.6429C87.0352 93.6429 86.3704 93.6429 85.7053 93.6429C85.0403 93.6429 84.3752 93.6429 83.7102 93.6429C83.701 91.9962 83.6917 90.3496 83.6824 88.7029C83.655 83.8615 83.651 83.7525 83.4782 83.236C83.2576 82.5765 82.9472 82.1439 82.3963 81.728C80.9248 80.617 78.7003 80.8447 77.3952 82.2397C77.0973 82.5581 76.7978 82.9887 76.627 83.3436C76.1086 84.4215 76.1027 84.4872 76.1016 89.3029C76.1011 90.7496 76.1008 92.1962 76.1003 93.6429C75.4336 93.6429 74.767 93.6429 74.1003 93.6429C73.4336 93.6429 72.767 93.6429 72.1003 93.6429C72.1003 90.9525 72.1003 88.2621 72.1003 85.5717C72.1003 82.8815 72.1003 80.1912 72.1003 77.5007C72.6936 77.4816 73.287 77.4623 73.8803 77.4432C74.8594 77.4114 75.7502 77.3986 75.8603 77.4143C75.927 77.4239 75.9936 77.4333 76.0603 77.4429C76.0675 77.9469 76.0749 78.4511 76.0821 78.9549C76.0894 79.4591 76.0966 79.9631 76.104 80.4671C76.1742 80.3258 76.2448 80.1847 76.315 80.0434C76.4334 79.8058 76.7931 79.3504 77.1333 79.0074C77.6229 78.5135 77.8872 78.3229 78.5003 78.0212C79.4918 77.5333 80.0603 77.4023 81.4243 77.3472C82.807 77.2916 83.6006 77.4277 84.5403 77.882C85.2376 78.2191 86.0818 78.8725 86.4603 79.3685C86.5923 79.5415 86.848 79.9767 87.0285 80.3357C87.1378 80.5532 87.2472 80.7708 87.3565 80.9884C87.4472 80.7975 87.5378 80.6066 87.6285 80.4157C87.84 79.97 88.069 79.6733 88.6603 79.0789C89.2939 78.442 89.5334 78.2604 90.1003 77.9869C91.1682 77.4717 91.7426 77.3628 93.3803 77.364C94.6288 77.3652 94.841 77.3853 95.3403 77.5511C97.7154 78.3386 98.9965 80.0472 99.2179 82.7229Z" fill="#262E01"/>
<path d="M67.7285 82.3229C67.7467 82.4109 67.7659 84.994 67.771 88.0629C67.7742 89.9229 67.7773 91.7829 67.7803 93.6429C67.1136 93.6429 66.447 93.6429 65.7803 93.6429C65.1136 93.6429 64.447 93.6429 63.7803 93.6429C63.7803 92.0575 63.7803 90.4722 63.7803 88.8868C63.7803 85.6933 63.751 83.9914 63.691 83.7068C63.4165 82.4032 62.5059 81.4716 61.1649 81.1223C59.8365 80.7762 58.5506 81.1669 57.4944 82.2375C57.044 82.6941 56.8771 82.9348 56.676 83.4175C56.1909 84.5831 56.1555 85.0424 56.2024 89.5829C56.2165 90.9362 56.2302 92.2896 56.2443 93.6429C55.5803 93.6429 54.9163 93.6429 54.2523 93.6429C53.5883 93.6429 52.9243 93.6429 52.2603 93.6429C52.2598 92.0896 52.2595 90.5362 52.2589 88.9829C52.2574 83.9143 52.2381 83.6498 51.807 82.7687C51.0288 81.1778 48.8093 80.5492 47.0074 81.4092C46.3093 81.7423 45.5021 82.552 45.1491 83.2738C44.6429 84.3084 44.5858 84.9461 44.5827 89.5829C44.5819 90.9362 44.5811 92.2896 44.5803 93.6429C43.927 93.6429 43.2736 93.6429 42.6203 93.6429C41.967 93.6429 41.3136 93.6429 40.6603 93.6429C40.6603 90.9496 40.6603 88.2562 40.6603 85.5629C40.6603 82.8696 40.6603 80.1762 40.6603 77.4829C41.3136 77.4829 41.967 77.4829 42.6203 77.4829C43.2736 77.4829 43.927 77.4829 44.5803 77.4829C44.5803 77.9671 44.5803 78.4512 44.5803 78.9354C44.5803 79.4194 44.5803 79.9036 44.5803 80.3877C44.6825 80.2303 44.785 80.0728 44.8872 79.9154C45.7381 78.6052 47.3125 77.6493 49.0203 77.4058C49.8435 77.2885 51.1288 77.3058 51.781 77.4431C53.5563 77.8165 54.9694 78.9344 55.5982 80.4626C55.7203 80.7596 55.8382 81.0005 55.8603 80.9981C55.8824 80.9959 56.0155 80.753 56.1563 80.4584C56.6627 79.3991 57.5846 78.5204 58.7803 77.9573C59.8523 77.4525 60.285 77.3671 61.7803 77.3648C62.824 77.3634 63.2174 77.3944 63.6603 77.513C65.2624 77.9426 66.4234 78.8588 67.1198 80.2429C67.32 80.6407 67.5202 81.3244 67.7285 82.3229Z" fill="#262E01"/>
<path d="M17.0968 86.2472C17.2387 86.9971 17.2058 88.3507 17.0293 89.0087C16.451 91.1655 15.0174 92.5611 12.5285 93.3904C10.8342 93.9549 8.44209 94.0336 6.26353 93.5962C5.18145 93.3791 3.77648 92.8813 2.82032 92.3763C2.23904 92.0694 0.685603 91.0467 0.270083 90.6974C0.180003 90.6218 0.08992 90.5461 0 90.4703C0.06784 90.3658 0.135682 90.2611 0.203682 90.1567C0.315682 89.984 0.704643 89.2219 1.068 88.4629C1.43104 87.7039 1.76032 87.0829 1.79952 87.0829C1.83872 87.0829 2.32752 87.4259 2.8856 87.8453C4.05408 88.7232 5.09072 89.2837 6.28656 89.6838C9.7128 90.8302 12.7403 89.9333 12.7403 87.7719C12.7403 86.3472 11.6763 85.5981 8.18032 84.5611C5.11888 83.6531 3.82752 83.0482 2.82 82.0498C2.46768 81.7005 1.9152 80.8387 1.71296 80.3229C1.38688 79.4909 1.2872 77.8962 1.49872 76.8978C1.73344 75.7893 2.46256 74.6374 3.42224 73.8589C3.95488 73.4267 5.068 72.8571 5.86032 72.6111C8.15248 71.8991 11.105 71.9903 13.8187 72.8567C14.6136 73.1104 16.9803 74.2346 16.9803 74.3586C16.9803 74.4327 16.7194 75.0272 16.211 76.1111C16.0181 76.5224 15.8603 76.8848 15.8603 76.916C15.8603 76.9472 15.7704 77.1595 15.6603 77.3875C15.5502 77.6155 15.4603 77.8382 15.4603 77.8824C15.4603 78.001 15.3718 77.9816 15.0659 77.7951C14.0595 77.1816 12.5701 76.5533 11.2725 76.1954C10.1334 75.881 8.26193 75.7778 7.53601 75.9895C6.89281 76.177 6.3904 76.5291 6.12736 76.9767C5.93536 77.3034 5.9008 77.4494 5.90272 77.9229C5.90576 78.6126 6.08496 78.9902 6.65088 79.499C7.2312 80.021 7.85632 80.2886 10.6218 81.1997C13.8485 82.2627 14.6285 82.6458 15.6701 83.679C16.5197 84.5221 16.8995 85.2058 17.0968 86.2472Z" fill="#262E01"/>
<path d="M116.936 81.8029C117.022 82.2719 117.048 83.6303 117.053 88.0229C117.056 89.8962 117.058 91.7696 117.06 93.6429C116.407 93.6429 115.754 93.6429 115.1 93.6429C114.447 93.6429 113.794 93.6429 113.14 93.6429C113.14 93.3496 113.14 93.0562 113.14 92.7629C113.14 92.2789 113.122 91.8829 113.1 91.8829C113.077 91.8829 112.808 92.0936 112.501 92.3511C111.224 93.4237 109.741 93.8576 107.605 93.7837C106.662 93.7512 106.348 93.7075 105.819 93.5359C104.185 93.0055 102.925 91.7439 102.45 90.1629C102.346 89.8178 102.306 89.4242 102.308 88.7629C102.311 87.3015 102.636 86.4504 103.533 85.5538C104.148 84.9391 104.86 84.5467 105.917 84.2403C106.806 83.9826 108.19 83.8867 111.051 83.8847C111.754 83.884 112.458 83.8835 113.161 83.8829C113.149 83.6837 113.136 83.4845 113.123 83.2853C113.048 82.124 112.394 81.2208 111.363 80.857C110.331 80.4925 108.716 80.4898 107.38 80.8506C106.759 81.0181 105.47 81.5909 105.066 81.8786C104.771 82.0888 104.673 82.0856 104.588 81.8629C104.55 81.7639 104.245 81.1661 103.91 80.5344C103.575 79.9027 103.3 79.3584 103.3 79.3243C103.3 79.2378 104.21 78.7738 105.33 78.2887C107.121 77.5131 108.493 77.2736 110.731 77.3464C111.904 77.3845 112.266 77.4267 112.89 77.5987C113.87 77.8685 114.768 78.3427 115.407 78.9283C116.238 79.6899 116.713 80.5823 116.936 81.8029ZM106.272 87.6563C106.049 88.1069 106.038 88.9779 106.249 89.4437C106.66 90.3469 107.827 90.8403 109.306 90.7354C110.996 90.6154 112.406 89.8037 112.929 88.6487C113.092 88.2891 113.227 87.2634 113.163 86.8691C113.148 86.7803 113.134 86.6915 113.119 86.6029C112.289 86.6029 111.458 86.6029 110.628 86.6029C108.443 86.6029 108.071 86.6211 107.599 86.752C106.894 86.9474 106.485 87.2266 106.272 87.6563Z" fill="#262E01"/>
<path d="M33.7803 77.4829C34.4471 77.4829 35.1136 77.4829 35.7803 77.4829C35.7803 80.1762 35.7803 82.8696 35.7803 85.5629C35.7803 88.2562 35.7803 90.9496 35.7803 93.6429C35.1136 93.6429 34.4471 93.6429 33.7803 93.6429C33.1136 93.6429 32.4471 93.6429 31.7803 93.6429C31.7803 93.2312 31.7803 92.8194 31.7803 92.4077C31.7803 91.7282 31.7488 91.153 31.7103 91.1291C31.6717 91.1051 31.5379 91.2333 31.4128 91.4138C30.7696 92.3418 29.4453 93.2165 28.1403 93.5755C27.2408 93.8229 25.1192 93.8407 24.3424 93.6072C22.3879 93.0202 21.0741 91.6391 20.5235 89.5925C20.4527 89.3293 20.3819 89.0661 20.3112 88.8029C20.3005 86.9162 20.2899 85.0296 20.2794 83.1429C20.2687 81.2562 20.2581 79.3696 20.2474 77.4829C20.9162 77.4829 21.585 77.4829 22.2539 77.4829C22.9226 77.4829 23.5915 77.4829 24.2603 77.4829C24.2603 78.9744 24.2603 80.4656 24.2603 81.9571C24.2603 84.6757 24.2938 86.677 24.3456 87.0571C24.4651 87.9362 24.8101 88.6525 25.3719 89.1882C25.9415 89.7315 26.5277 89.9655 27.4603 90.0218C29.1762 90.125 30.5107 89.3314 31.2587 87.7629C31.4527 87.356 31.6408 86.8139 31.6911 86.5163C31.749 86.1747 31.7803 84.496 31.7803 81.7363C31.7803 80.3186 31.7803 78.9007 31.7803 77.4829C32.4471 77.4829 33.1136 77.4829 33.7803 77.4829Z" fill="#262E01"/>
<path d="M130.549 77.3229C130.693 77.3229 130.836 77.3229 130.98 77.3229C130.98 77.9629 130.98 78.6029 130.98 79.2429C130.98 79.8829 130.98 80.5229 130.98 81.1629C130.734 81.1634 130.487 81.1637 130.24 81.164C128.826 81.1664 127.643 81.6163 126.779 82.4811C126.221 83.0391 125.86 83.6775 125.626 84.5219C125.468 85.092 125.46 85.317 125.46 89.3813C125.46 90.8019 125.46 92.2223 125.46 93.6429C124.794 93.6429 124.127 93.6429 123.46 93.6429C122.794 93.6429 122.127 93.6429 121.46 93.6429C121.46 90.9496 121.46 88.2562 121.46 85.5629C121.46 82.8696 121.46 80.1762 121.46 77.4829C122.127 77.4829 122.794 77.4829 123.46 77.4829C124.127 77.4829 124.794 77.4829 125.46 77.4829C125.46 77.9829 125.461 78.4829 125.461 78.9829C125.461 79.4829 125.461 79.9829 125.461 80.4829C125.566 80.3096 125.67 80.1362 125.775 79.9629C126.343 79.02 127.085 78.3946 128.296 77.8391C128.934 77.5461 129.908 77.3229 130.549 77.3229Z" fill="#262E01"/>
<path d="M135.64 77.5015C136.3 77.4944 136.96 77.4872 137.62 77.4802C137.62 80.174 137.62 82.8677 137.62 85.5615C137.62 88.2554 137.62 90.9491 137.62 93.6429C136.953 93.6429 136.287 93.6429 135.62 93.6429C134.953 93.6429 134.286 93.6429 133.62 93.6429C133.626 90.9562 133.633 88.2696 133.64 85.5829C133.647 82.8962 133.653 80.2096 133.66 77.5229C134.32 77.5159 134.98 77.5085 135.64 77.5015Z" fill="#262E01"/>
<path d="M82.2948 57.7341C82.314 57.5229 82.3481 44.8796 82.3704 29.6381C82.3926 14.3966 82.4277 1.83981 82.4482 1.73408C82.4687 1.62835 82.6253 1.35443 82.7963 1.12531C82.9676 0.896195 83.0736 0.653762 83.0321 0.586946C82.9909 0.52013 83.1148 0.361923 83.3078 0.235715C83.7865 -0.0773735 85.0898 -0.0789095 85.5668 0.233155C85.7575 0.357827 85.9137 0.427459 85.9137 0.388035C85.9137 0.348355 86.0401 0.433603 86.1945 0.576963C86.3488 0.720579 86.567 0.838083 86.6796 0.838083C86.792 0.838083 86.9975 1.02547 87.136 1.25408C87.3754 1.64909 87.39 1.96704 87.4253 7.55808C87.4458 10.7965 87.4578 15.1454 87.4517 17.2221C87.4456 19.2988 87.4289 31.3661 87.4146 44.0381C87.4066 50.874 87.3988 57.7099 87.3911 64.5458C87.3895 65.9503 86.2606 67.0939 84.8561 67.1126C84.5121 67.1173 84.0278 67.124 83.5747 67.1302C82.8847 67.1397 82.3182 66.5868 82.311 65.8967C82.2723 62.2177 82.2641 58.071 82.2948 57.7341Z" fill="#C3E12F"/>
<path d="M78.6062 62.7901C78.6062 63.5189 77.6295 64.2859 76.5356 64.4159C75.8357 64.4989 74.6927 64.0604 74.5903 63.6694C74.5562 63.5396 74.3642 63.3709 74.1633 63.2947C73.8015 63.1574 73.798 63.1454 73.7547 61.9171C73.7309 61.2356 73.7155 60.4566 73.7206 60.1858C73.726 59.9152 73.6715 59.5839 73.5996 59.4498C73.5276 59.3159 73.5171 59.2061 73.576 59.2061C73.7478 59.2061 73.6758 51.7002 73.502 51.4913C73.4152 51.3868 73.4027 51.267 73.471 51.1966C73.5343 51.1313 73.6049 50.0559 73.6282 48.8066C73.6513 47.5576 73.7038 46.5351 73.745 46.5346C73.7862 46.5343 73.8197 46.275 73.8197 45.9581C73.8197 45.6412 73.7759 45.3821 73.7222 45.3821C73.6684 45.3821 73.6572 45.0664 73.6971 44.6806C73.7427 44.2403 73.7153 43.9134 73.6239 43.8033C73.5148 43.6723 73.5148 43.5222 73.6241 43.2094C73.7777 42.7699 73.6887 36.0284 73.521 35.4101C73.4664 35.2089 73.4844 35.1311 73.5729 35.1859C73.6677 35.2442 73.6902 34.1381 73.6477 31.5258C73.6142 29.4668 73.5732 27.7245 73.5565 27.6541C73.5399 27.5837 73.576 27.459 73.6369 27.3771C73.6979 27.2949 73.7158 26.359 73.6769 25.2971C73.6533 24.6533 73.6298 24.0097 73.606 23.3661C73.6382 23.3663 73.6702 23.3666 73.7022 23.3669C73.755 23.3671 73.8169 23.2808 73.8397 23.1749C73.8627 23.0689 73.8195 22.9821 73.606 22.9821C73.694 21.6752 73.67 20.856 73.6095 20.3182C73.5445 19.7383 73.5476 19.2514 73.6175 19.1211C73.6935 18.979 73.6856 18.8712 73.595 18.8152C73.5074 18.7612 73.4879 18.5541 73.543 18.2632C73.5914 18.0072 73.6208 16.3868 73.6083 14.6621C73.5955 12.9374 73.5875 11.4396 73.5901 11.3341C73.5929 11.2284 73.6167 9.78836 73.6428 8.13409C73.6692 6.47981 73.7322 5.03418 73.7829 4.9218C73.8333 4.80941 73.8865 4.57722 73.9006 4.40621C73.9367 3.97229 74.4172 3.40423 74.8476 3.28596C75.0462 3.23143 75.6268 3.20557 76.138 3.22836C76.4481 3.24244 76.7578 3.25626 77.0676 3.27009C77.0996 3.26804 77.1318 3.26573 77.1638 3.26343C77.2166 3.2601 77.5051 3.47335 77.8049 3.73729C78.1564 4.0473 78.3496 4.32506 78.3496 4.52039C78.3496 4.68679 78.4098 4.93511 78.4833 5.07233C78.5752 5.24359 78.6154 14.3434 78.6062 62.7901Z" fill="#C3E12F"/>
<path d="M65.2726 10.9501C65.7245 10.7166 65.7683 10.6055 65.7078 10.3654C65.6472 10.124 65.7091 9.97012 65.9631 9.7305C66.075 9.62503 66.1866 9.51956 66.2984 9.41409C66.2982 9.44609 66.2977 9.47809 66.2974 9.51009C66.2969 9.56282 66.4167 9.62503 66.5631 9.64807C66.7493 9.67751 66.8465 9.60993 66.9395 9.15809C67.485 8.67476 68.1475 8.67015 69.1692 9.14222C70.2979 9.66394 70.4142 9.89076 70.4078 11.5627C70.4047 12.3171 70.4065 23.0717 70.4118 35.4621C70.4149 42.9713 70.418 50.4808 70.4211 57.9901C70.3327 58.1181 70.2447 58.2461 70.1564 58.3741C70.011 58.5853 69.8187 58.8733 69.7296 59.0141C69.4839 59.4022 69.3446 59.4685 68.9501 59.3858C68.702 59.3338 68.5108 59.3807 68.339 59.5356C68.0915 59.7596 67.6581 59.7014 67.4392 59.415C67.3926 59.3541 67.1642 59.2821 66.9318 59.255C66.4142 59.1948 65.9137 58.8835 65.9137 58.6219C65.9137 58.5149 65.8003 58.2717 65.6615 58.081C65.4004 57.7215 65.3745 56.7423 65.4068 48.4541C65.4101 47.574 65.4076 46.7676 65.4006 46.6621C65.394 46.5566 65.3873 42.8702 65.3858 38.4701C65.3843 34.07 65.3814 30.3549 65.3791 30.2141C65.3771 30.0733 65.4029 26.9053 65.4367 23.1741C65.4721 19.2686 65.4483 16.1505 65.3802 15.8251C65.2954 15.4191 65.3046 15.2337 65.4127 15.1669C65.5089 15.1075 65.534 14.9081 65.4821 14.6122C65.4549 14.4583 65.428 14.3042 65.4009 14.1501C65.4682 14.1501 65.5353 14.1501 65.6026 14.1501C65.7291 14.1501 65.777 14.0787 65.6574 13.7661C65.5455 12.2286 65.459 11.595 65.393 11.3661C65.3528 11.2276 65.3128 11.0886 65.2726 10.9501Z" fill="#C3E12F"/>
<path d="M91.2984 14.1501C91.3887 14.093 91.4299 13.848 91.4486 13.5692C91.5385 12.215 92.4883 11.5197 94.1233 11.6121C95.199 11.6728 95.783 12.0637 96.0915 12.9295C96.1603 13.123 96.2294 13.3165 96.2983 13.5101C96.2558 27.2061 96.2128 40.9021 96.1703 54.5981C96.1703 54.9524 96.0835 55.1541 95.9778 55.2747C95.9138 55.3479 95.8498 55.4209 95.7855 55.4941C95.7 55.5793 95.6148 55.6648 95.5293 55.7501C95.5293 55.9446 95.3706 56.0391 95.1765 56.0854C94.9827 56.1315 94.7664 56.2137 94.6957 56.2682C94.5276 56.3978 92.8369 56.2598 92.8369 56.1164C92.8369 56.0557 92.7199 56.0061 92.5773 56.0061C92.4184 56.0061 92.2704 55.8822 92.1959 55.6861C92.1273 55.5061 91.9716 55.3661 91.8401 55.3661C91.7113 55.3661 91.537 55.297 91.4522 55.2125C91.334 55.0945 91.2984 50.3428 91.2984 34.6045C91.2984 27.7864 91.2984 20.9681 91.2984 14.1501Z" fill="#C3E12F"/>
<path d="M99.8337 49.7031C99.8744 49.6627 99.9291 44.109 99.9555 37.3619C100.012 23.0325 100.013 25.0457 99.9471 23.2381C99.9102 22.2292 99.943 21.6688 100.051 21.4571C100.157 21.2492 100.164 21.1332 100.074 21.1028C99.8892 21.0411 99.9501 17.3081 100.137 17.2461C100.211 17.2211 100.273 17.0954 100.273 16.9668C100.273 16.6911 100.933 16.1034 101.519 15.8586C101.745 15.7637 102.149 15.6866 102.416 15.6871C103.266 15.6894 104.862 16.8069 104.683 17.2738C104.649 17.3637 104.709 17.5111 104.818 17.6012C104.995 17.7477 105.016 19.4933 105.011 33.8457C105.008 42.6897 104.959 50.1629 104.903 50.4522C104.847 50.7414 104.619 51.2048 104.396 51.4818C104.057 51.9019 103.864 52.0132 103.232 52.1533C102.756 52.2588 102.226 52.2869 101.805 52.2293C101.229 52.1502 101.059 52.055 100.579 51.5437C100.209 51.1503 100.02 50.8341 100.018 50.6058C100.017 50.4163 99.9586 50.2256 99.8882 50.1821C99.7479 50.0956 99.7167 49.8198 99.8337 49.7031ZM104.504 23.6221C104.504 24.0189 104.568 24.1341 104.647 24.1341C104.731 24.1341 104.757 24.0284 104.711 23.8781C104.685 23.7926 104.658 23.7076 104.632 23.6221C104.656 23.5366 104.681 23.4516 104.705 23.3661C104.756 23.1879 104.717 23.1101 104.375 23.1101C104.418 23.2806 104.461 23.4516 104.504 23.6221ZM104.76 33.4781C104.674 33.3073 104.589 33.1368 104.504 32.9661C104.504 33.1368 104.504 33.3073 104.504 33.4781C104.504 33.5421 104.504 33.6061 104.504 33.6701C104.504 33.7756 104.594 33.8621 104.705 33.8621C104.832 33.8621 104.879 33.7904 104.76 33.4781ZM104.568 27.2061C104.461 27.2061 104.375 27.32 104.375 27.4621C104.375 27.6042 104.461 27.7181 104.568 27.7181C104.674 27.7181 104.76 27.6042 104.76 27.4621C104.76 27.32 104.674 27.2061 104.568 27.2061ZM104.568 35.2701C104.461 35.2701 104.375 35.384 104.375 35.5261C104.375 35.6682 104.461 35.7821 104.568 35.7821C104.674 35.7821 104.76 35.6682 104.76 35.5261C104.76 35.384 104.674 35.2701 104.568 35.2701ZM104.623 43.3341C104.421 43.3341 104.367 43.4029 104.398 43.6208C104.459 44.0463 104.888 44.0836 104.888 43.6633C104.888 43.4157 104.822 43.3341 104.623 43.3341ZM104.696 17.7341C104.576 17.7341 104.504 17.8549 104.504 18.0541C104.504 18.2533 104.576 18.3741 104.696 18.3741C104.815 18.3741 104.888 18.2533 104.888 18.0541C104.888 17.8549 104.815 17.7341 104.696 17.7341ZM104.696 37.0621C104.59 37.0621 104.504 37.1486 104.504 37.2541C104.504 37.3596 104.59 37.4461 104.696 37.4461C104.802 37.4461 104.888 37.3596 104.888 37.2541C104.888 37.1486 104.802 37.0621 104.696 37.0621ZM104.696 41.1581C104.576 41.1581 104.504 41.2789 104.504 41.4781C104.504 41.6772 104.576 41.7981 104.696 41.7981C104.815 41.7981 104.888 41.6772 104.888 41.4781C104.888 41.2789 104.815 41.1581 104.696 41.1581ZM104.696 44.2301C104.546 44.2301 104.504 44.4008 104.504 44.9981C104.504 45.5953 104.546 45.7661 104.696 45.7661C104.845 45.7661 104.888 45.5953 104.888 44.9981C104.888 44.4008 104.845 44.2301 104.696 44.2301Z" fill="#C3E12F"/>
<path d="M56.53 25.2254C56.5517 25.2036 56.5656 24.1077 56.561 22.7903C56.5556 21.2991 56.6098 20.1945 56.7043 19.8645C56.788 19.5727 56.8423 19.2788 56.8249 19.2109C56.8075 19.1431 56.8769 19.0266 56.9795 18.9519C57.0822 18.8769 57.1869 18.702 57.213 18.5627C57.2673 18.2707 58.2436 17.7474 58.7495 17.7392C58.9341 17.7364 59.4822 17.8639 59.9675 18.0228C60.7012 18.263 60.8569 18.3633 60.8932 18.6196C60.9173 18.7891 61.0614 19.096 61.2138 19.3018C61.3062 19.4265 61.3983 19.5509 61.4907 19.6756C61.4907 24.4656 61.4907 29.2556 61.4907 34.0454C61.4907 44.6049 61.4516 48.4968 61.3433 48.7226C61.2624 48.8916 61.1283 49.2106 61.0456 49.431C60.9626 49.6516 60.7238 49.996 60.5146 50.1959C60.1634 50.532 60.0597 50.5597 59.1745 50.5517C58.3627 50.5446 58.175 50.5005 57.9567 50.2668C57.8148 50.1145 57.6164 49.9901 57.5158 49.9901C57.4152 49.9901 57.2713 49.8749 57.1958 49.7341C57.1203 49.5933 56.9787 49.4781 56.881 49.4781C56.7573 49.4781 56.6782 49.2346 56.6206 48.6781C56.5394 47.8945 56.4521 25.3032 56.53 25.2254ZM57.1249 26.2955C57.0118 26.4084 57.0709 26.7696 57.2427 27.0174C57.5724 27.4931 57.6175 27.8491 57.3812 28.1098C57.1989 28.3107 57.16 28.5936 57.1669 29.6685C57.1715 30.391 57.1853 32.3355 57.1974 33.9901C57.2094 35.6446 57.2045 37.6488 57.1864 38.4445C57.1602 39.5952 57.193 39.9303 57.3469 40.0839C57.5166 40.2531 57.5181 40.3445 57.3589 40.8273C57.2022 41.3027 57.2022 41.4376 57.3594 41.8132C57.5084 42.1693 57.5125 42.3311 57.3832 42.7046C57.2432 43.1078 57.1572 44.2086 57.1802 45.3014C57.1843 45.5037 57.3018 45.9069 57.4411 46.1974C57.6715 46.6787 57.7209 47.4836 57.5378 47.7793C57.4846 47.8653 57.5442 48.2587 57.7557 49.2221C57.779 49.3275 57.8881 49.4148 57.9981 49.4156C58.1082 49.4166 58.313 49.5213 58.4533 49.6481C58.6514 49.827 58.8189 49.8587 59.2021 49.7896C59.836 49.6754 60.0044 49.5344 60.2985 48.8721C60.5151 48.3844 60.5277 48.1732 60.4227 46.7601C60.3587 45.8966 60.3326 44.2395 60.3646 43.0781C60.4588 39.6766 60.4283 37.9532 60.2704 37.7633C60.1741 37.6473 60.1675 37.5142 60.2509 37.3583C60.4235 37.0352 60.4145 33.6245 60.2402 33.3457C60.1368 33.1803 60.1503 33.0137 60.2932 32.6929C60.5172 32.1894 60.5036 30.5284 60.2696 29.8209C60.1854 29.5661 60.1616 29.2177 60.2151 29.0234C60.2952 28.7318 60.3362 28.2687 60.4094 26.8221C60.4148 26.7166 60.3464 26.3515 60.2576 26.0113C60.1401 25.5603 60.1342 25.3322 60.2356 25.1699C60.3262 25.025 60.3582 24.2365 60.3267 22.9112C60.2985 21.7172 60.3349 20.6671 60.4145 20.3719C60.5138 20.0027 60.51 19.7803 60.3992 19.5373C59.9414 18.5336 59.9773 18.5666 59.3378 18.5548C59.005 18.5484 58.6962 18.5069 58.6517 18.4621C58.5273 18.338 58.3496 18.4923 58.3496 18.7243C58.3496 18.8382 58.174 19.0796 57.959 19.2606C57.6443 19.5261 57.5622 19.7025 57.5366 20.1679C57.5192 20.4856 57.4593 20.8194 57.4035 20.9092C57.3476 20.9994 57.3569 21.143 57.4239 21.2277C57.5821 21.4276 57.7007 22.0858 57.6177 22.3021C57.5821 22.3943 57.4872 22.4701 57.4065 22.4701C57.3049 22.4701 57.2481 23.0489 57.2212 24.3542C57.1997 25.3905 57.1564 26.264 57.1249 26.2955Z" fill="#C9E538"/>
<path d="M107.837 20.9341C108.234 20.7288 108.35 20.5823 108.35 20.4763C108.35 20.3619 108.702 20.1246 109.215 19.8937C109.906 19.5824 110.19 19.5184 110.626 19.5765C111.619 19.7091 112.419 20.2449 112.7 20.9663C112.746 21.0836 112.791 21.2008 112.837 21.3181C112.813 21.4036 112.788 21.4886 112.764 21.5741C112.713 21.7523 112.752 21.8301 113.093 21.8301C113.086 30.2351 113.078 38.6398 113.071 47.0445C112.935 47.0794 112.8 47.1142 112.665 47.1487C112.33 47.2347 112.253 47.3238 112.22 47.6615C112.198 47.8863 112.111 48.0703 112.027 48.0708C111.944 48.0714 111.714 48.1553 111.518 48.2577C111.061 48.4958 109.734 48.4467 109.095 48.1676C108.807 48.0424 108.48 47.7444 108.261 47.4078C108.141 47.2232 108.021 47.0387 107.901 46.8541C107.89 42.5341 107.879 38.2141 107.869 33.8941C107.858 29.5741 107.847 25.2541 107.837 20.9341ZM108.029 20.9341C107.994 20.9341 107.965 20.9627 107.965 20.9981C107.965 21.0334 107.994 21.0621 108.029 21.0621C108.064 21.0621 108.093 21.0334 108.093 20.9981C108.093 20.9627 108.064 20.9341 108.029 20.9341ZM112.644 31.3021C112.538 31.3021 112.452 31.416 112.452 31.5581C112.452 31.7002 112.538 31.8141 112.644 31.8141C112.751 31.8141 112.837 31.7002 112.837 31.5581C112.837 31.416 112.751 31.3021 112.644 31.3021ZM112.644 39.4941C112.539 39.4941 112.452 39.5806 112.452 39.6861C112.452 39.7915 112.539 39.8781 112.644 39.8781C112.75 39.8781 112.837 39.7915 112.837 39.6861C112.837 39.5806 112.75 39.4941 112.644 39.4941ZM112.644 43.3341C112.539 43.3341 112.452 43.4206 112.452 43.5261C112.452 43.6315 112.539 43.7181 112.644 43.7181C112.75 43.7181 112.837 43.6315 112.837 43.5261C112.837 43.4206 112.75 43.3341 112.644 43.3341Z" fill="#C3E12F"/>
<path d="M48.4109 42.6759C48.4488 42.6378 48.4867 38.1194 48.4952 32.6343C48.5118 21.8966 48.5546 21.1158 49.1651 20.4367C49.6528 19.8937 50.4433 19.6257 51.272 19.7222C52.2783 19.8397 52.8651 20.2408 53.169 21.0196C53.3996 21.6109 53.4104 22.2215 53.4119 34.8861C53.4129 42.1726 53.3704 48.2887 53.3174 48.4776C53.2473 48.727 53.1244 48.8322 52.8687 48.8616C52.6749 48.8839 52.5164 48.9692 52.5164 49.0513C52.5164 49.2999 52.3352 49.4033 51.837 49.4407C49.9941 49.5784 50.1384 49.6076 49.4739 48.9615C48.6303 48.141 48.5036 47.6469 48.4926 45.1414C48.4877 44.0261 48.4516 43.0307 48.4127 42.9293C48.3736 42.828 48.3728 42.7138 48.4109 42.6759Z" fill="#C3E12F"/>
<path d="M40.8024 24.8107C40.9362 24.3373 41.5355 23.8358 42.2808 23.5732C42.9502 23.3374 43.9555 23.5012 44.286 23.9003C44.413 24.0537 44.6582 24.1853 44.8305 24.193C45.0028 24.2004 45.245 24.3074 45.3686 24.4308C45.5778 24.6397 45.5957 25.2835 45.6295 33.796C45.6653 42.8717 45.6635 42.9378 45.405 43.076C45.2619 43.1526 45.1446 43.3041 45.1446 43.4134C45.1446 43.5222 45.0735 43.5875 44.9864 43.5586C44.8994 43.5297 44.8272 43.5883 44.8262 43.6886C44.8228 43.9646 43.6831 44.3478 43.0539 44.2851C41.6896 44.1489 41.0978 43.7639 40.8047 42.8221C40.6313 42.2655 40.6293 25.4235 40.8024 24.8107Z" fill="#C3E12F"/>
<path d="M57.1249 26.2955C57.1564 26.264 57.1997 25.3905 57.2212 24.3542C57.2481 23.0489 57.3049 22.4701 57.4065 22.4701C57.4872 22.4701 57.5822 22.3943 57.6177 22.3021C57.7007 22.0858 57.5822 21.4277 57.4239 21.2277C57.3569 21.143 57.3477 20.9994 57.4035 20.9093C57.4593 20.8194 57.5192 20.4856 57.5366 20.1679C57.5622 19.7025 57.6444 19.5261 57.959 19.2606C58.174 19.0796 58.3497 18.8382 58.3497 18.7243C58.3497 18.4924 58.5273 18.338 58.6517 18.4621C58.6963 18.5069 59.005 18.5484 59.3378 18.5548C59.9773 18.5666 59.9415 18.5336 60.3992 19.5373C60.51 19.7803 60.5139 20.0028 60.4145 20.3719C60.3349 20.6671 60.2986 21.7172 60.3267 22.9112C60.3582 24.2365 60.3262 25.025 60.2356 25.1699C60.1342 25.3322 60.1401 25.5603 60.2576 26.0113C60.3465 26.3516 60.4148 26.7166 60.4094 26.8221C60.3362 28.2687 60.2952 28.7318 60.2151 29.0234C60.1616 29.2177 60.1854 29.5661 60.2697 29.8209C60.5036 30.5285 60.5172 32.1894 60.2932 32.6929C60.1504 33.0137 60.1368 33.1804 60.2402 33.3457C60.4146 33.6245 60.4235 37.0352 60.251 37.3583C60.1675 37.5142 60.1742 37.6473 60.2704 37.7633C60.4284 37.9532 60.4588 39.6766 60.3646 43.0781C60.3326 44.2396 60.3587 45.8966 60.4227 46.7601C60.5277 48.1732 60.5151 48.3844 60.2986 48.8721C60.0044 49.5344 59.836 49.6755 59.2021 49.7896C58.8189 49.8588 58.6515 49.827 58.4533 49.6481C58.313 49.5213 58.1082 49.4166 57.9982 49.4156C57.8881 49.4148 57.779 49.3276 57.7557 49.2221C57.5443 48.2588 57.4846 47.8653 57.5379 47.7793C57.7209 47.4836 57.6715 46.6787 57.4411 46.1974C57.3018 45.9069 57.1843 45.5037 57.1802 45.3014C57.1572 44.2086 57.2432 43.1078 57.3832 42.7046C57.5125 42.3311 57.5084 42.1693 57.3594 41.8132C57.2022 41.4376 57.2023 41.3027 57.3589 40.8273C57.5182 40.3445 57.5166 40.2531 57.3469 40.0839C57.193 39.9303 57.1603 39.5952 57.1864 38.4445C57.2046 37.6488 57.2094 35.6446 57.1974 33.9901C57.1854 32.3356 57.1715 30.391 57.1669 29.6685C57.16 28.5936 57.1989 28.3107 57.3812 28.1098C57.6175 27.8492 57.5724 27.4931 57.2427 27.0174C57.0709 26.7696 57.0118 26.4084 57.1249 26.2955Z" fill="#C3E12F"/>
<path d="M117.965 23.2381C118.649 23.2381 118.88 23.2911 118.921 23.3564C118.961 23.4214 119.165 23.512 119.375 23.5581C120.266 23.7534 120.56 24.6637 120.535 27.1372C120.525 28.1254 120.514 32.0445 120.511 35.8461C120.507 40.7193 120.461 42.8902 120.357 43.2061C120.239 43.5624 120.064 43.727 119.503 44.0102C118.908 44.3107 118.678 44.3583 118.026 44.3153C117.107 44.2544 116.211 43.8389 116.037 43.393C115.996 43.288 115.955 43.183 115.914 43.0781C115.908 39.9935 115.903 36.9087 115.897 33.8242C115.892 30.7399 115.886 27.6551 115.881 24.5706C115.982 24.4538 116.084 24.3376 116.186 24.2211C116.353 24.0286 116.823 23.7288 117.965 23.2381Z" fill="#C3E12F"/>
<path d="M122.965 30.0221C123.425 27.3848 123.47 27.2061 123.671 27.2061C123.761 27.2061 123.87 27.1155 123.913 27.0046C123.955 26.894 124.221 26.7212 124.503 26.6206C124.674 26.5597 124.845 26.499 125.016 26.4381C125.016 26.4701 125.016 26.5021 125.015 26.5341C125.015 26.5871 125.188 26.648 125.4 26.67C125.612 26.6923 125.786 26.649 125.786 26.4381C126.843 26.8162 127.186 27.0643 127.514 27.4577C127.673 27.6482 127.832 27.8387 127.991 28.0291C127.997 29.8575 128.003 31.6861 128.01 33.5147C128.028 38.6173 128.014 39.009 127.805 39.1254C127.674 39.1984 127.58 39.4012 127.58 39.6085C127.58 40.2372 126.862 40.6212 125.593 40.6704C124.562 40.7101 123.991 40.5642 123.991 40.2605C123.991 40.0967 123.881 40.0104 123.638 39.9825C123.355 39.95 123.292 39.8837 123.318 39.6456C123.335 39.4826 123.28 39.2232 123.196 39.0696C123.087 38.872 123.031 37.5057 123.004 34.4061C122.991 32.9448 122.978 31.4833 122.965 30.0221ZM123.67 39.3661C123.564 39.3661 123.478 39.4526 123.478 39.5581C123.478 39.6636 123.564 39.7501 123.67 39.7501C123.776 39.7501 123.863 39.6636 123.863 39.5581C123.863 39.4526 123.776 39.3661 123.67 39.3661Z" fill="#C3E12F"/>
<path d="M37.7086 30.7901C38.0097 30.9542 38.0831 31.3914 38.1377 32.3901C38.1799 33.1645 38.2526 34.0728 38.2989 34.4086C38.3478 34.7614 38.3143 35.3448 38.2196 35.791C38.0857 36.4198 37.9708 36.6322 37.597 36.94C37.3046 37.1806 37.0538 37.2904 36.9045 37.2431C36.776 37.2024 36.6014 37.2231 36.5167 37.2891C36.0976 37.6155 34.9456 37.5021 34.7213 37.1123C34.665 37.0145 34.5268 36.9341 34.4139 36.9341C34.301 36.9341 34.0104 36.73 33.768 36.4807C33.3587 36.0601 33.3195 35.9467 33.224 34.9127C33.1672 34.2996 33.1469 33.7551 33.1787 33.7021C33.2107 33.6491 33.1833 33.6061 33.1183 33.6061C33.0532 33.6061 33 33.3642 33 33.0685C33 32.6765 33.0735 32.4707 33.2708 32.3089C33.5123 32.111 33.5228 32.0555 33.3663 31.8C33.2117 31.5468 33.2194 31.4938 33.4306 31.3507C33.9661 30.9877 34.2444 30.7171 34.2457 30.5584C34.2465 30.4665 34.3 30.4235 34.3645 30.4634C34.429 30.5031 34.5045 30.4675 34.5322 30.3846C34.5885 30.2159 37.0663 30.1432 37.0671 30.3101C37.0673 30.3421 37.0676 30.3741 37.0676 30.4061C37.0356 30.4058 37.0036 30.4056 36.9716 30.4051C36.9186 30.4045 36.8564 30.5236 36.8333 30.6695C36.7955 30.9068 36.8395 30.927 37.7086 30.7901Z" fill="#C3E12F"/>
<path d="M130.145 31.9421C130.34 31.694 130.398 31.4703 130.399 31.2849C130.4 31.0676 130.515 30.8728 130.721 30.7379C130.898 30.6224 131.042 30.4429 131.042 30.339C131.042 30.2108 131.177 30.1501 131.465 30.1501C131.698 30.1501 131.943 30.0981 132.01 30.0346C132.082 29.9663 132.434 29.9757 132.877 30.0577C133.466 30.1667 133.729 30.2988 134.127 30.6849C134.405 30.9537 134.632 31.2412 134.632 31.3238C134.632 31.4063 134.716 31.567 134.819 31.6804C134.936 31.81 135.033 32.2908 135.079 32.9707C135.119 33.5664 135.182 34.1905 135.219 34.3572C135.259 34.5405 135.2 34.7537 135.071 34.8968C134.939 35.0417 134.887 35.2345 134.936 35.3937C134.963 35.4805 134.99 35.5673 135.016 35.6541C134.927 35.6723 134.838 35.6907 134.749 35.7089C134.569 35.746 134.506 35.8297 134.632 36.1661C134.632 36.4659 133.952 37.1852 133.474 37.3903C133.229 37.4957 133.123 37.4855 133.005 37.3455C132.875 37.1896 132.812 37.1929 132.56 37.369C132.176 37.6381 131.865 37.6284 131.575 37.3378C131.444 37.208 131.205 37.1069 131.043 37.1138C130.557 37.134 130.024 35.9718 130.31 35.5146C130.424 35.3323 130.422 35.2399 130.301 35.1196C130.196 35.0138 130.145 34.4737 130.145 33.4525C130.145 32.9492 130.145 32.4454 130.145 31.9421Z" fill="#C3E12F"/>
<path d="M77.0676 3.27008C76.8689 2.91527 77.4017 2.94778 77.7468 3.31181C77.9022 3.47514 78.1269 3.64512 78.2465 3.6889C78.3722 3.73498 78.5007 3.97357 78.5516 4.25543C78.6003 4.52295 78.7024 4.85728 78.779 4.99808C78.8775 5.17933 78.9326 13.3368 78.9666 32.9021C79.0232 65.2827 79.0396 62.4196 78.7969 62.627C78.7334 62.6813 78.6697 62.7358 78.6062 62.7901C78.6154 14.3434 78.5752 5.24359 78.4833 5.07232C78.4098 4.93511 78.3497 4.68679 78.3497 4.52039C78.3497 4.32506 78.1564 4.0473 77.8049 3.73728C77.5051 3.47335 77.2166 3.2601 77.1639 3.26343C77.1319 3.26573 77.0996 3.26803 77.0676 3.27008Z" fill="#E1E9B6"/>
<path d="M115.401 25.1581C115.878 23.9477 116.388 23.4216 117.281 23.2222C117.657 23.138 117.965 23.1073 117.965 23.1539C117.965 23.182 117.965 23.2099 117.965 23.2381C116.823 23.7288 116.353 24.0286 116.186 24.2211C116.084 24.3376 115.982 24.4538 115.881 24.5706C115.886 27.6551 115.892 30.7399 115.897 33.8242C115.903 36.9087 115.908 39.9935 115.914 43.0781C115.506 42.8815 115.484 42.115 115.445 34.0154C115.43 31.063 115.415 28.1105 115.401 25.1581Z" fill="#E1E9B6"/>
<path d="M96.2983 13.5101C96.6075 13.6819 96.6623 54.4463 96.3536 54.5415C96.2924 54.5602 96.2312 54.5794 96.1703 54.5981C96.2128 40.9021 96.2558 27.2061 96.2983 13.5101Z" fill="#E1E9B6"/>
<path d="M104.696 44.2301C104.845 44.2301 104.888 44.4008 104.888 44.9981C104.888 45.5953 104.845 45.7661 104.696 45.7661C104.546 45.7661 104.504 45.5953 104.504 44.9981C104.504 44.4008 104.546 44.2301 104.696 44.2301Z" fill="#EFEDAE"/>
<path d="M37.0676 30.4061C37.4713 30.4061 37.6154 30.4926 37.6484 30.5981C37.6684 30.6621 37.6886 30.7261 37.7086 30.7901C36.8395 30.927 36.7954 30.9068 36.8333 30.6695C36.8564 30.5236 36.9186 30.4045 36.9716 30.4051C37.0036 30.4056 37.0356 30.4058 37.0676 30.4061Z" fill="#EBF7A1"/>
<path d="M66.2984 9.41408C66.3412 9.37159 66.3839 9.32858 66.4267 9.28608C66.4692 9.24359 66.5122 9.20058 66.5547 9.15808C66.5974 9.15808 66.6402 9.15808 66.6829 9.15808C66.7257 9.15808 66.7684 9.15808 66.8112 9.15808C66.8539 9.15808 66.8967 9.15808 66.9395 9.15808C66.8465 9.60992 66.7492 9.67751 66.5631 9.64807C66.4167 9.62503 66.2969 9.56282 66.2974 9.51008C66.2977 9.47808 66.2982 9.44608 66.2984 9.41408Z" fill="#E7EDA7"/>
<path d="M104.696 41.1581C104.815 41.1581 104.888 41.2789 104.888 41.4781C104.888 41.6772 104.815 41.7981 104.696 41.7981C104.576 41.7981 104.504 41.6772 104.504 41.4781C104.504 41.2789 104.576 41.1581 104.696 41.1581Z" fill="#F0F0A5"/>
<path d="M104.696 17.7341C104.815 17.7341 104.888 17.8549 104.888 18.0541C104.888 18.2533 104.815 18.3741 104.696 18.3741C104.576 18.3741 104.504 18.2533 104.504 18.0541C104.504 17.8549 104.576 17.7341 104.696 17.7341Z" fill="#EFF19D"/>
<path d="M125.016 26.4381C125.273 26.4381 125.529 26.4381 125.786 26.4381C125.786 26.649 125.612 26.6923 125.4 26.67C125.188 26.648 125.015 26.5871 125.015 26.5341C125.016 26.5021 125.016 26.4701 125.016 26.4381Z" fill="#E0EDA9"/>
<path d="M112.644 31.3021C112.751 31.3021 112.837 31.416 112.837 31.5581C112.837 31.7002 112.751 31.8141 112.644 31.8141C112.538 31.8141 112.452 31.7002 112.452 31.5581C112.452 31.416 112.538 31.3021 112.644 31.3021Z" fill="#F6F8A8"/>
<path d="M104.568 35.2701C104.674 35.2701 104.76 35.384 104.76 35.5261C104.76 35.6682 104.674 35.7821 104.568 35.7821C104.461 35.7821 104.375 35.6682 104.375 35.5261C104.375 35.384 104.461 35.2701 104.568 35.2701Z" fill="#F5F7BB"/>
<path d="M104.568 27.2061C104.674 27.2061 104.76 27.32 104.76 27.4621C104.76 27.6042 104.674 27.7181 104.568 27.7181C104.461 27.7181 104.375 27.6042 104.375 27.4621C104.375 27.32 104.461 27.2061 104.568 27.2061Z" fill="#F4F6C1"/>
<path d="M73.4779 23.1101C73.5204 23.0676 73.5634 23.0246 73.6059 22.9821C73.8194 22.9821 73.8627 23.0689 73.8397 23.1749C73.8169 23.2808 73.7549 23.3671 73.7022 23.3669C73.6702 23.3666 73.6382 23.3663 73.6059 23.3661C73.5634 23.3236 73.5204 23.2806 73.4779 23.2381C73.4779 23.1956 73.4779 23.1526 73.4779 23.1101Z" fill="#E0EDA2"/>
<path d="M104.632 23.6221C104.589 23.6221 104.546 23.6221 104.504 23.6221C104.461 23.4516 104.418 23.2806 104.375 23.1101C104.717 23.1101 104.756 23.1879 104.705 23.3661C104.681 23.4516 104.656 23.5366 104.632 23.6221Z" fill="#F5F7C6"/>
<path d="M104.623 43.3341C104.822 43.3341 104.888 43.4157 104.888 43.6633C104.888 44.0836 104.459 44.0463 104.398 43.6208C104.367 43.4029 104.421 43.3341 104.623 43.3341Z" fill="#F4F2BD"/>
<path d="M123.67 39.3661C123.776 39.3661 123.863 39.4526 123.863 39.5581C123.863 39.6636 123.776 39.7501 123.67 39.7501C123.564 39.7501 123.478 39.6636 123.478 39.5581C123.478 39.4526 123.564 39.3661 123.67 39.3661Z" fill="#E9F095"/>
<path d="M112.644 43.3341C112.75 43.3341 112.837 43.4206 112.837 43.5261C112.837 43.6315 112.75 43.7181 112.644 43.7181C112.539 43.7181 112.452 43.6315 112.452 43.5261C112.452 43.4206 112.539 43.3341 112.644 43.3341Z" fill="#F3F6A1"/>
<path d="M112.644 39.4941C112.75 39.4941 112.837 39.5806 112.837 39.6861C112.837 39.7916 112.75 39.8781 112.644 39.8781C112.539 39.8781 112.452 39.7916 112.452 39.6861C112.452 39.5806 112.539 39.4941 112.644 39.4941Z" fill="#F5F8A7"/>
<path d="M104.696 37.0621C104.802 37.0621 104.888 37.1486 104.888 37.2541C104.888 37.3595 104.802 37.4461 104.696 37.4461C104.59 37.4461 104.504 37.3595 104.504 37.2541C104.504 37.1486 104.59 37.0621 104.696 37.0621Z" fill="#EDEFA4"/>
<path d="M104.504 33.4781C104.589 33.4781 104.674 33.4781 104.76 33.4781C104.879 33.7904 104.832 33.8621 104.705 33.8621C104.594 33.8621 104.504 33.7756 104.504 33.6701C104.504 33.6061 104.504 33.5421 104.504 33.4781Z" fill="#F1F0B1"/>
<path d="M104.504 32.9661C104.589 33.1368 104.674 33.3073 104.76 33.4781C104.674 33.4781 104.589 33.4781 104.504 33.4781C104.504 33.3073 104.504 33.1368 104.504 32.9661Z" fill="white"/>
<path d="M65.4009 14.1501C65.4506 13.8511 65.5084 13.7651 65.5612 13.7653C65.5932 13.7656 65.6254 13.7658 65.6574 13.7661C65.777 14.0787 65.7291 14.1501 65.6026 14.1501C65.5353 14.1501 65.4682 14.1501 65.4009 14.1501Z" fill="#E7EDAB"/>
<path d="M104.504 23.6221C104.546 23.6221 104.589 23.6221 104.632 23.6221C104.658 23.7076 104.685 23.7926 104.711 23.8781C104.757 24.0284 104.731 24.1341 104.647 24.1341C104.568 24.1341 104.504 24.0189 104.504 23.6221Z" fill="white"/>
<path d="M108.029 20.9341C108.064 20.9341 108.093 20.9628 108.093 20.9981C108.093 21.0334 108.064 21.0621 108.029 21.0621C107.994 21.0621 107.965 21.0334 107.965 20.9981C107.965 20.9628 107.994 20.9341 108.029 20.9341Z" fill="white"/>
</svg>
