<svg width="320" height="320" viewBox="0 0 320 320" fill="none" xmlns="http://www.w3.org/2000/svg">
<g clip-path="url(#clip0_2_2)">
<path d="M0 320C0 213.333 0 106.667 0 0C106.667 0 213.333 0 320 0C320 106.667 320 213.333 320 320C213.333 320 106.667 320 0 320ZM142.8 130.64C142.801 148.32 142.805 148.608 142.953 148.851C143.038 148.989 143.24 149.203 143.403 149.328C143.644 149.512 143.794 149.558 144.21 149.577C144.38 149.585 144.55 149.592 144.72 149.6C145.263 149.432 145.486 149.236 145.651 148.78C145.688 148.68 145.724 148.58 145.76 148.48C145.787 146.827 145.813 145.173 145.84 143.52C145.813 140.4 145.787 137.28 145.76 134.16C145.76 134.08 145.76 134 145.76 133.92C145.76 133.36 145.76 132.8 145.76 132.24C145.76 132.213 145.76 132.187 145.76 132.16C145.756 130.251 145.694 129.981 145.152 129.534C144.872 129.304 144.793 129.28 144.299 129.28C143.4 129.28 143.106 129.49 142.875 130.299C142.85 130.386 142.825 130.473 142.8 130.56C142.8 130.587 142.8 130.613 142.8 130.64ZM140.64 131.12C140.64 131.008 140.505 130.837 140.34 130.668C140.24 130.565 140.14 130.463 140.04 130.36C139.794 130.36 139.548 130.36 139.301 130.36C139.055 130.36 138.809 130.36 138.563 130.36C138.455 130.468 138.348 130.575 138.24 130.683C137.935 130.988 137.912 131.042 137.837 131.683C137.741 132.49 137.749 147.558 137.845 147.984C137.93 148.36 138.147 148.64 138.528 148.864C139.153 149.232 140.198 148.93 140.565 148.275C140.617 148.183 140.668 148.092 140.72 148C140.735 148 140.75 148 140.764 148C140.789 148 140.807 147.046 140.8 143.76C140.8 142.693 140.8 141.627 140.8 140.56C140.827 139.067 140.853 137.573 140.88 136.08C140.853 135.28 140.827 134.48 140.8 133.68C140.814 133.423 140.829 133.166 140.843 132.909C140.867 132.485 140.921 132.073 140.963 131.994C141.014 131.9 141.012 131.832 140.96 131.8C140.916 131.773 140.88 131.669 140.88 131.571C140.88 131.472 140.826 131.33 140.64 131.12ZM131.122 137.602C130.999 137.219 130.937 137.14 130.631 136.984C130.24 136.784 130.072 136.76 129.948 136.884C129.89 136.942 129.798 136.938 129.646 136.868C129.476 136.791 129.394 136.79 129.275 136.864C129.191 136.917 129.059 136.961 128.981 136.961C128.904 136.962 128.701 137.103 128.532 137.275C128.429 137.379 128.327 137.484 128.224 137.588C128.209 138.025 128.195 138.462 128.181 138.899C128.166 139.335 128.152 139.772 128.137 140.209C128.212 140.323 128.288 140.436 128.363 140.55C128.486 140.737 128.779 141.017 129.014 141.172C129.725 141.644 130.424 141.635 130.965 141.146C131.07 141.051 131.175 140.956 131.28 140.861C131.277 140.391 131.275 139.921 131.272 139.451C131.265 138.339 131.234 137.947 131.122 137.602ZM135.84 134.4C135.795 133.546 135.676 133.247 135.252 132.924C135.029 132.754 134.899 132.72 134.462 132.72C133.876 132.72 133.334 132.881 133.062 133.137C133.001 133.194 132.941 133.251 132.88 133.308C132.88 135.227 132.88 137.146 132.88 139.064C132.88 140.983 132.88 142.902 132.88 144.821C132.996 144.938 133.113 145.054 133.229 145.171C133.44 145.382 133.652 145.52 133.764 145.52C133.865 145.52 134.059 145.56 134.194 145.608C134.556 145.739 135.204 145.538 135.344 145.253C135.402 145.136 135.499 145.04 135.562 145.04C135.853 145.04 135.868 144.796 135.874 139.92C135.877 137.302 135.862 134.818 135.84 134.4ZM151.36 124.56C150.923 123.84 150.622 123.643 149.96 123.641C149.332 123.64 149.102 123.71 148.761 124.009C148.557 124.189 148.48 124.322 148.48 124.497C148.48 124.63 148.426 124.824 148.36 124.929C148.32 124.993 148.28 125.056 148.24 125.12C148.401 125.575 148.438 127.237 148.292 127.426C148.235 127.5 148.236 127.576 148.296 127.671C148.384 127.813 148.364 129.944 148.273 130.092C148.247 130.133 148.268 130.218 148.32 130.28C148.372 130.342 148.392 130.428 148.366 130.47C148.324 130.538 148.313 131.865 148.328 134.84C148.33 135.324 148.33 139.032 148.327 143.08C148.318 154.66 148.311 153.983 148.442 154.298C148.507 154.452 148.667 154.664 148.8 154.769C148.88 154.832 148.96 154.896 149.04 154.96C149.01 155 148.979 155.041 148.949 155.082C148.878 155.176 148.891 155.24 149.009 155.371C149.148 155.526 149.219 155.536 149.9 155.496C150.582 155.456 150.64 155.44 150.64 155.12C151.027 154.841 151.189 154.643 151.25 154.5C151.286 154.413 151.323 154.327 151.36 154.24C151.38 154.24 151.4 154.24 151.42 154.24C151.453 154.24 151.471 151.252 151.44 140.96C151.413 140.907 151.387 140.853 151.36 140.8C151.393 140.79 151.427 140.78 151.46 140.77C151.493 140.76 151.527 140.751 151.56 140.741C151.493 140.654 151.427 140.567 151.36 140.48C151.387 140.373 151.413 140.267 151.44 140.16C151.447 139.424 151.453 138.688 151.46 137.952C151.471 136.738 151.453 135.73 151.36 135.68C151.387 133.04 151.413 130.4 151.44 127.76C151.452 127.273 151.464 126.787 151.475 126.3C151.495 125.465 151.478 124.78 151.36 124.56ZM156.576 121.235C156.55 121.07 156.446 120.806 156.278 120.48C156.127 120.186 155.64 119.976 155.02 119.936C154.137 119.88 153.664 120.204 153.518 120.964C153.411 121.522 153.403 156.804 153.51 157.169C153.607 157.5 153.884 157.81 154.303 158.057C154.594 158.228 154.72 158.253 155.143 158.226C155.716 158.189 156.199 157.976 156.431 157.659C156.592 157.439 156.592 157.36 156.596 139.414C156.598 129.5 156.589 121.32 156.576 121.235ZM162 129.36C161.998 120.601 161.977 119.705 161.876 119.232C161.707 118.445 161.522 118.269 160.666 118.077C160.394 118.016 160.212 118.027 159.876 118.125C159.43 118.254 159.193 118.479 158.976 118.98C158.944 119.053 158.912 119.127 158.88 119.2C158.88 132.8 158.88 146.4 158.88 160C159.382 160 159.885 160 160.387 160C160.889 160 161.392 160 161.894 160C161.912 157.693 161.929 155.387 161.947 153.08C161.965 150.773 161.982 148.467 162 146.16C162 144.667 162 143.173 162 141.68C162 141.387 162 141.093 162 140.8C162 136.987 162 133.173 162 129.36ZM167.52 127.12C167.454 126.427 167.373 126.094 167.297 125.933C167.139 125.595 166.729 125.359 166.196 125.299C165.523 125.224 164.56 125.756 164.56 126.204C164.56 126.269 164.56 126.335 164.56 126.4C164.533 126.427 164.507 126.453 164.48 126.48C164.48 135.04 164.48 143.6 164.48 152.16C165.061 152.903 165.544 153.2 166.172 153.2C166.74 153.2 167.141 153.05 167.091 152.857C167.067 152.765 167.11 152.682 167.206 152.635C167.258 152.61 167.309 152.585 167.36 152.56C167.404 152.473 167.448 152.387 167.493 152.3C167.604 152.082 167.63 151.706 167.65 149.953C167.664 148.806 167.698 147.807 167.726 147.734C167.753 147.662 167.742 147.503 167.699 147.381C167.655 147.254 167.652 147.101 167.76 146.88C167.759 146.703 167.758 146.526 167.757 146.349C167.756 146.058 167.719 145.754 167.677 145.674C167.628 145.584 167.628 145.512 167.676 145.483C167.717 145.457 167.739 145.194 167.725 144.898C167.705 144.495 167.73 144.324 167.823 144.218C167.919 144.109 167.926 144.054 167.854 143.982C167.802 143.93 167.76 143.735 167.76 143.549C167.76 143.362 167.722 143.186 167.676 143.158C167.619 143.122 167.624 143.067 167.691 142.986C167.768 142.895 167.769 142.832 167.697 142.717C167.633 142.615 167.63 142.551 167.687 142.516C167.738 142.484 167.768 142.06 167.766 141.412C167.764 140.833 167.761 140.27 167.761 140.16C167.761 140.05 167.752 139.483 167.741 138.901C167.724 138.07 167.743 137.833 167.828 137.8C167.898 137.774 167.915 137.708 167.876 137.619C167.844 137.543 167.807 136.382 167.796 135.04C167.785 133.698 167.754 132.1 167.727 131.489C167.684 130.491 167.693 130.368 167.818 130.276C167.95 130.18 167.95 130.166 167.808 130.009C167.695 129.883 167.68 129.817 167.747 129.736C167.813 129.657 167.809 129.392 167.735 128.733C167.68 128.241 167.657 127.811 167.685 127.779C167.713 127.746 167.716 127.45 167.691 127.12C167.651 126.574 167.641 126.547 167.52 127.12ZM169.92 129.28C169.907 136.131 169.893 142.982 169.88 149.832C169.983 149.938 170.086 150.043 170.189 150.149C170.65 150.62 171.542 150.791 172.104 150.514C172.361 150.387 172.823 149.932 172.808 149.82C172.805 149.8 172.803 149.78 172.8 149.76C172.843 149.607 172.885 149.453 172.928 149.3C172.998 149.047 173.053 148.696 173.05 148.52C173.047 148.344 173.043 147.975 173.04 147.2C173.035 147.02 173.029 146.84 173.024 146.66C173.015 146.363 173.025 145.802 173.046 145.414C173.067 145.025 173.054 144.688 173.016 144.665C172.978 144.642 172.95 144.338 172.96 143.36C172.96 143.333 172.96 143.307 172.96 143.28C172.978 143.28 172.995 143.28 173.013 143.28C173.064 143.28 173.067 143.055 173.039 141.064C173.032 140.527 173.05 140.048 173.08 140C173.109 139.952 173.098 139.869 173.055 139.816C172.964 139.705 172.969 138.64 173.061 138.64C173.094 138.64 173.121 138.478 173.12 137.92C173.094 137.868 173.068 137.816 173.042 137.764C172.999 137.678 172.994 137.588 173.032 137.565C173.085 137.532 173.092 136.723 173.042 136.276C173.038 136.234 173.053 135.885 173.12 134.8C173.105 134.753 173.09 134.707 173.074 134.66C173.021 134.498 173.016 133.752 173.061 132.852C173.084 132.379 173.066 132.216 172.88 132.16C172.935 129.777 172.914 129.297 172.832 128.985C172.794 128.843 172.757 128.702 172.72 128.56C172.629 128.469 172.538 128.377 172.448 128.286C172.143 127.979 171.748 127.841 171.174 127.84C170.679 127.84 170.178 128.17 169.84 128.72C169.867 128.907 169.893 129.093 169.92 129.28ZM174.88 131.36C174.842 143.512 174.806 147.04 174.775 147.04C174.757 147.04 174.739 147.04 174.72 147.04C174.72 147.241 175.39 147.975 175.735 148.151C175.991 148.281 176.748 148.26 177.119 148.111C177.297 148.04 177.521 147.869 177.618 147.731C177.715 147.593 177.826 147.444 177.865 147.4C177.904 147.356 177.932 147.293 177.928 147.26C177.925 147.24 177.923 147.22 177.92 147.2C177.94 147.2 177.96 147.2 177.98 147.2C178.013 147.2 178.049 146.345 178.06 145.3C178.071 144.186 178.046 143.309 177.92 142.96C177.92 142.507 177.92 142.053 177.92 141.6C177.946 141.513 177.973 141.427 177.999 141.34C178.116 140.953 178.117 138.407 178 138.32C177.973 138.213 177.947 138.107 177.92 138C177.951 137.974 177.982 137.949 178.013 137.923C178.081 137.867 178.104 137.101 178.099 135.112C178.094 133.277 178.063 132.356 177.92 132.24C177.968 130.955 177.908 130.793 177.26 130.47C177.107 130.393 176.953 130.317 176.8 130.24C176.733 130.208 176.665 130.176 176.598 130.144C176.312 130.008 175.755 130.171 175.254 130.539C174.907 130.794 174.857 130.866 174.88 131.36ZM182.644 133.583C182.475 133.046 182.081 132.708 181.495 132.598C181.132 132.529 180.164 132.815 179.948 133.054C179.675 133.355 179.64 134.098 179.645 139.493C179.649 144.29 179.661 144.778 179.784 144.965C180.065 145.392 181.016 145.738 181.65 145.643C181.94 145.599 182.102 145.512 182.352 145.267C182.461 145.161 182.57 145.054 182.678 144.948C182.684 143.09 182.689 141.232 182.695 139.374C182.704 136.308 182.681 133.702 182.644 133.583ZM187.36 135.76C186.903 134.806 186.768 134.705 185.898 134.667C185.29 134.64 185.207 134.655 185.024 134.819C184.913 134.918 184.754 135.039 184.671 135.088C184.588 135.136 184.475 135.289 184.42 135.428C184.387 135.512 184.353 135.596 184.32 135.68C184.437 136.049 184.44 136.175 184.403 136.198C184.314 136.253 184.299 142.28 184.387 142.46C184.766 143.233 184.945 143.377 185.588 143.424C186.193 143.468 186.893 143.271 187.108 142.997C187.195 142.886 187.288 142.652 187.313 142.478C187.329 142.372 187.344 142.266 187.36 142.16C187.371 142.16 187.383 142.16 187.394 142.16C187.412 142.16 187.445 141.305 187.467 140.26C187.488 139.215 187.527 138.252 187.552 138.12C187.576 137.988 187.562 137.808 187.519 137.72C187.476 137.632 187.423 137.155 187.36 135.76ZM191.52 137.52C191.268 137.162 191.079 137.009 190.938 136.95C190.71 136.854 190.526 136.843 189.673 136.872C189.392 136.882 188.935 137.341 188.82 137.728C188.768 137.9 188.707 138.319 188.683 138.66C188.669 138.867 188.654 139.073 188.64 139.28C188.708 140.648 188.881 141.128 189.374 141.32C189.476 141.36 189.578 141.4 189.68 141.44C189.68 141.46 189.68 141.48 189.68 141.5C189.681 141.62 190.756 141.553 191.014 141.417C191.392 141.216 191.852 140.612 191.925 140.218C191.96 140.032 191.969 139.484 191.946 139C191.91 138.252 191.875 138.075 191.52 137.52ZM93.6365 180.924C93.4392 179.883 93.0594 179.199 92.2098 178.356C91.1682 177.323 90.3882 176.94 87.1614 175.877C84.396 174.966 83.7709 174.698 83.1906 174.176C82.6246 173.667 82.4454 173.29 82.4424 172.6C82.4405 172.127 82.475 171.98 82.667 171.654C82.9301 171.206 83.4325 170.854 84.0757 170.667C84.8016 170.455 86.6731 170.558 87.8122 170.872C89.1098 171.23 90.5992 171.859 91.6056 172.472C91.9115 172.659 92 172.678 92 172.56C92 172.515 92.0899 172.293 92.2 172.065C92.3101 171.837 92.4 171.624 92.4 171.593C92.4 171.562 92.5578 171.2 92.7507 170.788C93.259 169.704 93.52 169.11 93.52 169.036C93.52 168.912 91.1533 167.788 90.3584 167.534C87.6446 166.667 84.6922 166.576 82.4 167.288C81.6077 167.534 80.4946 168.104 79.9619 168.536C79.0022 169.315 78.2731 170.466 78.0384 171.575C77.8269 172.573 77.9266 174.168 78.2526 175C78.4549 175.516 79.0074 176.378 79.3597 176.727C80.3672 177.725 81.6586 178.33 84.72 179.238C88.216 180.275 89.28 181.024 89.28 182.449C89.28 184.61 86.2525 185.507 82.8262 184.361C81.6304 183.961 80.5938 183.4 79.4253 182.522C78.8672 182.103 78.3784 181.76 78.3392 181.76C78.3 181.76 77.9707 182.381 77.6077 183.14C77.2443 183.899 76.8554 184.661 76.7434 184.834C76.6754 184.938 76.6075 185.043 76.5397 185.147C76.6296 185.223 76.7197 185.299 76.8098 185.375C77.2253 185.724 78.7787 186.747 79.36 187.053C80.3162 187.558 81.7211 188.056 82.8032 188.273C84.9818 188.711 87.3739 188.632 89.0682 188.068C91.5571 187.238 92.9907 185.843 93.569 183.686C93.7454 183.028 93.7784 181.674 93.6365 180.924ZM110.32 172.16C109.653 172.16 108.987 172.16 108.32 172.16C108.32 173.578 108.32 174.996 108.32 176.413C108.32 179.173 108.289 180.852 108.231 181.193C108.18 181.491 107.992 182.033 107.798 182.44C107.05 184.008 105.716 184.802 104 184.699C103.067 184.643 102.481 184.409 101.912 183.865C101.35 183.33 101.005 182.613 100.885 181.734C100.833 181.354 100.8 179.353 100.8 176.634C100.8 175.143 100.8 173.652 100.8 172.16C100.131 172.16 99.4622 172.16 98.7936 172.16C98.1246 172.16 97.4558 172.16 96.787 172.16C96.7978 174.047 96.8083 175.933 96.819 177.82C96.8296 179.707 96.8402 181.593 96.8509 183.48C96.9216 183.743 96.9923 184.006 97.0632 184.27C97.6138 186.316 98.9275 187.697 100.882 188.284C101.659 188.518 103.78 188.5 104.68 188.253C105.985 187.894 107.309 187.019 107.952 186.091C108.078 185.91 108.211 185.782 108.25 185.806C108.288 185.83 108.32 186.405 108.32 187.085C108.32 187.496 108.32 187.908 108.32 188.32C108.987 188.32 109.653 188.32 110.32 188.32C110.987 188.32 111.653 188.32 112.32 188.32C112.32 185.627 112.32 182.933 112.32 180.24C112.32 177.547 112.32 174.853 112.32 172.16C111.653 172.16 110.987 172.16 110.32 172.16ZM144.268 177C144.06 176.001 143.86 175.318 143.66 174.92C142.963 173.536 141.802 172.62 140.2 172.19C139.757 172.072 139.364 172.04 138.32 172.042C136.825 172.044 136.392 172.13 135.32 172.634C134.124 173.197 133.202 174.076 132.696 175.136C132.555 175.43 132.422 175.673 132.4 175.675C132.378 175.678 132.26 175.437 132.138 175.14C131.509 173.612 130.096 172.494 128.321 172.12C127.668 171.983 126.383 171.966 125.56 172.083C123.852 172.326 122.278 173.282 121.427 174.592C121.325 174.75 121.222 174.907 121.12 175.065C121.12 174.581 121.12 174.096 121.12 173.612C121.12 173.128 121.12 172.644 121.12 172.16C120.467 172.16 119.813 172.16 119.16 172.16C118.507 172.16 117.853 172.16 117.2 172.16C117.2 174.853 117.2 177.547 117.2 180.24C117.2 182.933 117.2 185.627 117.2 188.32C117.853 188.32 118.507 188.32 119.16 188.32C119.813 188.32 120.467 188.32 121.12 188.32C121.121 186.967 121.122 185.613 121.122 184.26C121.125 179.623 121.183 178.985 121.689 177.951C122.042 177.229 122.849 176.419 123.547 176.086C125.349 175.226 127.568 175.855 128.347 177.446C128.778 178.327 128.797 178.591 128.799 183.66C128.799 185.213 128.8 186.767 128.8 188.32C129.464 188.32 130.128 188.32 130.792 188.32C131.456 188.32 132.12 188.32 132.784 188.32C132.77 186.967 132.756 185.613 132.742 184.26C132.695 179.72 132.731 179.26 133.216 178.095C133.417 177.612 133.584 177.371 134.034 176.915C135.09 175.844 136.376 175.453 137.705 175.799C139.046 176.149 139.956 177.08 140.231 178.384C140.291 178.668 140.32 180.37 140.32 183.564C140.32 185.149 140.32 186.735 140.32 188.32C140.987 188.32 141.653 188.32 142.32 188.32C142.987 188.32 143.653 188.32 144.32 188.32C144.317 186.46 144.314 184.6 144.311 182.74C144.306 179.671 144.286 177.088 144.268 177ZM175.758 177.4C175.536 174.724 174.255 173.016 171.88 172.228C171.381 172.062 171.168 172.042 169.92 172.041C168.282 172.04 167.708 172.149 166.64 172.664C166.073 172.937 165.834 173.119 165.2 173.756C164.609 174.35 164.38 174.647 164.168 175.093C164.077 175.284 163.987 175.475 163.896 175.665C163.787 175.448 163.677 175.23 163.568 175.013C163.388 174.654 163.132 174.219 163 174.046C162.621 173.55 161.777 172.896 161.08 172.559C160.14 172.105 159.347 171.969 157.964 172.024C156.6 172.079 156.032 172.21 155.04 172.698C154.427 173 154.163 173.191 153.673 173.684C153.333 174.028 152.973 174.483 152.855 174.72C152.784 174.862 152.714 175.003 152.644 175.144C152.636 174.64 152.629 174.136 152.622 173.632C152.615 173.128 152.607 172.624 152.6 172.12C152.533 172.11 152.467 172.101 152.4 172.091C152.29 172.076 151.399 172.088 150.42 172.12C149.827 172.139 149.233 172.159 148.64 172.178C148.64 174.868 148.64 177.559 148.64 180.249C148.64 182.939 148.64 185.63 148.64 188.32C149.307 188.32 149.973 188.32 150.64 188.32C151.307 188.32 151.973 188.32 152.64 188.32C152.64 186.873 152.641 185.427 152.641 183.98C152.642 179.164 152.648 179.099 153.167 178.021C153.337 177.666 153.637 177.235 153.935 176.917C155.24 175.522 157.464 175.294 158.936 176.405C159.487 176.821 159.797 177.254 160.018 177.913C160.191 178.43 160.195 178.539 160.222 183.38C160.231 185.027 160.241 186.673 160.25 188.32C160.915 188.32 161.58 188.32 162.245 188.32C162.91 188.32 163.575 188.32 164.24 188.32C164.24 186.86 164.241 185.4 164.241 183.94C164.242 179.06 164.247 179.009 164.781 177.92C165.352 176.753 166.438 175.96 167.743 175.757C168.822 175.59 169.996 175.914 170.778 176.594C171.203 176.965 171.648 177.858 171.758 178.56C171.805 178.867 171.839 180.977 171.839 183.7C171.84 185.24 171.84 186.78 171.84 188.32C172.507 188.32 173.173 188.32 173.84 188.32C174.507 188.32 175.173 188.32 175.84 188.32C175.836 186.62 175.832 184.92 175.828 183.22C175.822 180.415 175.79 177.796 175.758 177.4ZM193.476 176.48C193.253 175.259 192.778 174.367 191.947 173.605C191.308 173.02 190.41 172.546 189.43 172.276C188.806 172.104 188.444 172.062 187.27 172.024C185.033 171.951 183.66 172.19 181.87 172.966C180.749 173.451 179.84 173.915 179.84 174.001C179.84 174.036 180.114 174.58 180.449 175.212C180.784 175.843 181.089 176.441 181.127 176.54C181.212 176.763 181.311 176.766 181.606 176.556C182.01 176.268 183.299 175.695 183.92 175.528C185.256 175.167 186.87 175.17 187.903 175.534C188.933 175.898 189.588 176.801 189.663 177.962C189.676 178.162 189.688 178.361 189.701 178.56C188.998 178.561 188.294 178.561 187.591 178.562C184.73 178.564 183.346 178.66 182.457 178.917C181.399 179.224 180.687 179.616 180.073 180.231C179.176 181.128 178.851 181.979 178.847 183.44C178.846 184.101 178.886 184.495 178.989 184.84C179.465 186.421 180.725 187.683 182.358 188.213C182.887 188.385 183.201 188.428 184.145 188.461C186.281 188.535 187.764 188.101 189.041 187.028C189.348 186.771 189.617 186.56 189.639 186.56C189.662 186.56 189.68 186.956 189.68 187.44C189.68 187.733 189.68 188.027 189.68 188.32C190.333 188.32 190.987 188.32 191.64 188.32C192.293 188.32 192.947 188.32 193.6 188.32C193.598 186.447 193.595 184.573 193.593 182.7C193.587 178.307 193.562 176.949 193.476 176.48ZM207.088 172C206.448 172 205.474 172.223 204.836 172.516C203.625 173.072 202.883 173.697 202.314 174.64C202.21 174.813 202.105 174.987 202.001 175.16C202.001 174.66 202.001 174.16 202 173.66C202 173.16 202 172.66 202 172.16C201.333 172.16 200.667 172.16 200 172.16C199.333 172.16 198.667 172.16 198 172.16C198 174.853 198 177.547 198 180.24C198 182.933 198 185.627 198 188.32C198.667 188.32 199.333 188.32 200 188.32C200.667 188.32 201.333 188.32 202 188.32C202 186.899 202 185.479 202 184.058C202 179.994 202.008 179.769 202.166 179.199C202.4 178.355 202.76 177.716 203.318 177.158C204.183 176.293 205.366 175.844 206.78 175.841C207.027 175.841 207.273 175.84 207.52 175.84C207.52 175.2 207.52 174.56 207.52 173.92C207.52 173.28 207.52 172.64 207.52 172C207.376 172 207.232 172 207.088 172ZM214.162 166.423C213.736 165.58 213.099 165.196 212.118 165.191C211.614 165.188 211.461 165.222 211.108 165.414C210.667 165.654 210.321 166.056 210.06 166.633C209.856 167.087 209.892 168.019 210.137 168.57C210.532 169.456 211.204 169.882 212.2 169.877C213.062 169.873 213.675 169.501 214.164 168.683C214.318 168.427 214.36 168.227 214.384 167.643C214.411 166.962 214.398 166.891 214.162 166.423ZM212.18 172.179C211.52 172.186 210.86 172.193 210.2 172.2C210.193 174.887 210.186 177.573 210.18 180.26C210.173 182.947 210.166 185.633 210.159 188.32C210.826 188.32 211.493 188.32 212.16 188.32C212.826 188.32 213.493 188.32 214.16 188.32C214.16 185.626 214.16 182.932 214.16 180.239C214.16 177.545 214.16 174.851 214.16 172.157C213.5 172.164 212.84 172.172 212.18 172.179ZM244.161 172.147C244.117 172.132 243.212 172.138 242.15 172.16C241.506 172.173 240.861 172.187 240.218 172.2C240.17 172.333 240.122 172.467 240.074 172.6C239.995 172.82 239.661 173.738 239.332 174.64C239.004 175.542 238.608 176.64 238.454 177.08C238.3 177.52 238.041 178.24 237.88 178.68C237.719 179.12 237.557 179.57 237.521 179.68C237.394 180.066 236.579 182.362 236.498 182.56C236.453 182.67 236.352 182.967 236.272 183.221C236.192 183.475 236.092 183.67 236.049 183.656C236.007 183.642 235.766 183.093 235.513 182.435C233.844 178.085 232.965 175.815 232.079 173.56C231.901 173.107 231.723 172.653 231.545 172.2C230.857 172.193 230.17 172.186 229.483 172.179C228.796 172.172 228.108 172.164 227.421 172.157C227.434 172.218 227.447 172.278 227.459 172.339C227.481 172.438 227.512 172.574 227.529 172.64C227.556 172.744 227.298 172.763 225.62 172.781C224.973 172.788 224.327 172.796 223.68 172.803C223.68 172.474 223.68 172.145 223.68 171.816C223.68 170.22 223.961 169.618 224.865 169.276C225.452 169.053 226.338 169.093 227.187 169.379C227.577 169.51 227.785 169.547 227.806 169.488C227.823 169.44 227.985 168.736 228.165 167.924C228.54 166.239 228.568 166.374 227.771 166.076C225.904 165.377 223.608 165.611 222.028 166.661C220.592 167.616 219.926 168.802 219.756 170.709C219.71 171.221 219.678 171.802 219.684 172C219.689 172.198 219.691 172.459 219.687 172.58C219.685 172.653 219.682 172.727 219.68 172.8C219.333 172.8 218.987 172.8 218.64 172.8C218.293 172.8 217.947 172.8 217.6 172.8C217.6 173.279 217.6 173.758 217.6 174.238C217.6 174.717 217.6 175.196 217.6 175.675C217.94 175.683 218.28 175.69 218.62 175.698C218.96 175.705 219.3 175.713 219.64 175.72C219.647 177.82 219.654 179.92 219.66 182.02C219.667 184.12 219.674 186.22 219.681 188.32C220.347 188.32 221.014 188.32 221.68 188.32C222.347 188.32 223.013 188.32 223.68 188.32C223.68 186.213 223.68 184.107 223.68 182C223.68 179.893 223.68 177.787 223.68 175.68C224.362 175.68 225.043 175.68 225.725 175.68C226.407 175.68 227.088 175.68 227.77 175.68C227.765 175.266 227.759 174.852 227.754 174.438C227.743 173.633 227.764 173.232 227.814 173.298C227.856 173.354 228.037 173.742 228.215 174.16C228.926 175.823 229.63 177.495 230.44 179.44C231.453 181.876 231.646 182.333 231.847 182.779C231.931 182.966 232 183.136 232 183.156C232 183.178 232.429 184.196 232.954 185.419C233.479 186.643 233.932 187.74 233.961 187.857C234.002 188.017 233.925 188.26 233.652 188.835C232.986 190.242 232.172 190.809 230.992 190.688C230.424 190.63 230.033 190.486 229.536 190.151C229.347 190.024 229.167 189.92 229.136 189.921C229.105 189.922 228.915 190.219 228.713 190.581C228.511 190.944 228.142 191.589 227.893 192.016C227.644 192.442 227.44 192.826 227.44 192.869C227.44 193.025 227.981 193.395 228.76 193.772C229.749 194.249 230.721 194.443 231.76 194.371C232.684 194.306 233.262 194.146 234.16 193.708C235.232 193.183 236.045 192.367 236.616 191.24C236.84 190.8 237.112 190.188 237.222 189.879C237.397 189.389 238.681 186.156 238.873 185.72C238.958 185.528 242.319 177.057 243.364 174.4C243.771 173.366 244.134 172.486 244.172 172.444C244.264 172.341 244.258 172.179 244.161 172.147Z" fill="#002338"/>
<path d="M214.162 166.423C214.398 166.891 214.411 166.962 214.384 167.643C214.36 168.227 214.318 168.427 214.164 168.683C213.675 169.501 213.062 169.873 212.2 169.877C211.204 169.882 210.532 169.456 210.137 168.57C209.892 168.019 209.856 167.087 210.06 166.633C210.321 166.056 210.667 165.654 211.108 165.414C211.461 165.222 211.614 165.188 212.118 165.191C213.099 165.196 213.736 165.58 214.162 166.423Z" fill="#FFFEFC"/>
<path d="M244.161 172.147C244.258 172.179 244.264 172.341 244.172 172.444C244.134 172.486 243.771 173.366 243.364 174.4C242.319 177.057 238.958 185.528 238.873 185.72C238.681 186.156 237.397 189.389 237.222 189.879C237.112 190.188 236.84 190.8 236.616 191.24C236.045 192.367 235.232 193.183 234.16 193.708C233.262 194.146 232.684 194.306 231.76 194.371C230.721 194.443 229.749 194.249 228.76 193.772C227.981 193.395 227.44 193.025 227.44 192.869C227.44 192.826 227.644 192.442 227.893 192.016C228.142 191.589 228.511 190.944 228.713 190.581C228.915 190.219 229.105 189.922 229.136 189.921C229.167 189.92 229.347 190.024 229.536 190.151C230.033 190.486 230.424 190.63 230.992 190.688C232.172 190.809 232.986 190.242 233.652 188.835C233.925 188.26 234.002 188.017 233.961 187.857C233.932 187.74 233.479 186.643 232.954 185.419C232.429 184.196 232 183.178 232 183.156C232 183.136 231.931 182.966 231.847 182.779C231.646 182.333 231.453 181.876 230.44 179.44C229.63 177.495 228.926 175.823 228.215 174.16C228.037 173.742 227.856 173.354 227.814 173.298C227.764 173.232 227.743 173.633 227.754 174.438C227.759 174.852 227.765 175.266 227.77 175.68C227.088 175.68 226.407 175.68 225.725 175.68C225.043 175.68 224.362 175.68 223.68 175.68C223.68 177.787 223.68 179.893 223.68 182C223.68 184.107 223.68 186.213 223.68 188.32C223.013 188.32 222.347 188.32 221.68 188.32C221.014 188.32 220.347 188.32 219.681 188.32C219.674 186.22 219.667 184.12 219.66 182.02C219.654 179.92 219.647 177.82 219.64 175.72C219.3 175.713 218.96 175.705 218.62 175.698C218.28 175.69 217.94 175.683 217.6 175.675C217.6 175.196 217.6 174.717 217.6 174.238C217.6 173.758 217.6 173.279 217.6 172.8C217.947 172.8 218.293 172.8 218.64 172.8C218.987 172.8 219.333 172.8 219.68 172.8C219.682 172.727 219.685 172.653 219.687 172.58C219.691 172.459 219.689 172.198 219.684 172C219.678 171.802 219.71 171.221 219.756 170.709C219.926 168.802 220.592 167.616 222.028 166.661C223.608 165.611 225.904 165.377 227.771 166.076C228.568 166.374 228.54 166.239 228.165 167.924C227.985 168.736 227.823 169.44 227.806 169.488C227.785 169.547 227.577 169.51 227.187 169.379C226.338 169.093 225.452 169.053 224.865 169.276C223.961 169.618 223.68 170.22 223.68 171.816C223.68 172.145 223.68 172.474 223.68 172.803C224.327 172.796 224.973 172.788 225.62 172.781C227.298 172.763 227.556 172.744 227.529 172.64C227.512 172.574 227.481 172.438 227.459 172.339C227.447 172.278 227.434 172.218 227.421 172.157C228.108 172.164 228.796 172.172 229.483 172.179C230.17 172.186 230.857 172.193 231.545 172.2C231.723 172.653 231.901 173.107 232.079 173.56C232.965 175.815 233.844 178.085 235.513 182.435C235.766 183.093 236.007 183.642 236.049 183.656C236.092 183.67 236.192 183.475 236.272 183.221C236.352 182.967 236.453 182.67 236.498 182.56C236.579 182.362 237.394 180.066 237.521 179.68C237.557 179.57 237.719 179.12 237.88 178.68C238.041 178.24 238.3 177.52 238.454 177.08C238.608 176.64 239.004 175.542 239.332 174.64C239.661 173.738 239.995 172.82 240.074 172.6C240.122 172.467 240.17 172.333 240.218 172.2C240.861 172.187 241.506 172.173 242.15 172.16C243.212 172.138 244.117 172.132 244.161 172.147Z" fill="#FFFEFC"/>
<path d="M175.758 177.4C175.79 177.796 175.822 180.415 175.828 183.22C175.832 184.92 175.836 186.62 175.84 188.32C175.173 188.32 174.507 188.32 173.84 188.32C173.173 188.32 172.507 188.32 171.84 188.32C171.84 186.78 171.84 185.24 171.839 183.7C171.839 180.977 171.805 178.867 171.758 178.56C171.648 177.858 171.203 176.965 170.778 176.594C169.996 175.914 168.822 175.59 167.743 175.757C166.438 175.96 165.352 176.753 164.781 177.92C164.247 179.009 164.242 179.06 164.241 183.94C164.241 185.4 164.24 186.86 164.24 188.32C163.575 188.32 162.91 188.32 162.245 188.32C161.58 188.32 160.915 188.32 160.25 188.32C160.241 186.673 160.231 185.027 160.222 183.38C160.195 178.539 160.191 178.43 160.018 177.913C159.797 177.254 159.487 176.821 158.936 176.405C157.464 175.294 155.24 175.522 153.935 176.917C153.637 177.235 153.337 177.666 153.167 178.021C152.648 179.099 152.642 179.164 152.641 183.98C152.641 185.427 152.64 186.873 152.64 188.32C151.973 188.32 151.307 188.32 150.64 188.32C149.973 188.32 149.307 188.32 148.64 188.32C148.64 185.63 148.64 182.939 148.64 180.249C148.64 177.559 148.64 174.868 148.64 172.178C149.233 172.159 149.827 172.139 150.42 172.12C151.399 172.088 152.29 172.076 152.4 172.091C152.467 172.101 152.533 172.11 152.6 172.12C152.607 172.624 152.615 173.128 152.622 173.632C152.629 174.136 152.636 174.64 152.644 175.144C152.714 175.003 152.784 174.862 152.855 174.72C152.973 174.483 153.333 174.028 153.673 173.684C154.163 173.191 154.427 173 155.04 172.698C156.032 172.21 156.6 172.079 157.964 172.024C159.347 171.969 160.14 172.105 161.08 172.559C161.777 172.896 162.621 173.55 163 174.046C163.132 174.219 163.388 174.654 163.568 175.013C163.677 175.23 163.787 175.448 163.896 175.665C163.987 175.475 164.077 175.284 164.168 175.093C164.38 174.647 164.609 174.35 165.2 173.756C165.834 173.119 166.073 172.937 166.64 172.664C167.708 172.149 168.282 172.04 169.92 172.041C171.168 172.042 171.381 172.062 171.88 172.228C174.255 173.016 175.536 174.724 175.758 177.4Z" fill="#FFFEFC"/>
<path d="M144.268 177C144.286 177.088 144.306 179.671 144.311 182.74C144.314 184.6 144.317 186.46 144.32 188.32C143.653 188.32 142.987 188.32 142.32 188.32C141.653 188.32 140.987 188.32 140.32 188.32C140.32 186.735 140.32 185.149 140.32 183.564C140.32 180.37 140.291 178.668 140.231 178.384C139.956 177.08 139.046 176.149 137.705 175.799C136.376 175.453 135.09 175.844 134.034 176.915C133.584 177.371 133.417 177.612 133.216 178.095C132.731 179.26 132.695 179.72 132.742 184.26C132.756 185.613 132.77 186.967 132.784 188.32C132.12 188.32 131.456 188.32 130.792 188.32C130.128 188.32 129.464 188.32 128.8 188.32C128.8 186.767 128.799 185.213 128.799 183.66C128.797 178.591 128.778 178.327 128.347 177.446C127.568 175.855 125.349 175.226 123.547 176.086C122.849 176.419 122.042 177.229 121.689 177.951C121.183 178.985 121.125 179.623 121.122 184.26C121.122 185.613 121.121 186.967 121.12 188.32C120.467 188.32 119.813 188.32 119.16 188.32C118.507 188.32 117.853 188.32 117.2 188.32C117.2 185.627 117.2 182.933 117.2 180.24C117.2 177.547 117.2 174.853 117.2 172.16C117.853 172.16 118.507 172.16 119.16 172.16C119.813 172.16 120.467 172.16 121.12 172.16C121.12 172.644 121.12 173.128 121.12 173.612C121.12 174.096 121.12 174.581 121.12 175.065C121.222 174.907 121.325 174.75 121.427 174.592C122.278 173.282 123.852 172.326 125.56 172.083C126.383 171.966 127.668 171.983 128.321 172.12C130.096 172.494 131.509 173.612 132.138 175.14C132.26 175.437 132.378 175.678 132.4 175.675C132.422 175.673 132.555 175.43 132.696 175.136C133.202 174.076 134.124 173.197 135.32 172.634C136.392 172.13 136.825 172.044 138.32 172.042C139.364 172.04 139.757 172.072 140.2 172.19C141.802 172.62 142.963 173.536 143.66 174.92C143.86 175.318 144.06 176.001 144.268 177Z" fill="#FFFEFC"/>
<path d="M93.6365 180.924C93.7784 181.674 93.7454 183.028 93.569 183.686C92.9907 185.843 91.5571 187.238 89.0682 188.068C87.3739 188.632 84.9818 188.711 82.8032 188.273C81.7211 188.056 80.3162 187.558 79.36 187.053C78.7787 186.747 77.2253 185.724 76.8098 185.375C76.7197 185.299 76.6296 185.223 76.5397 185.147C76.6075 185.043 76.6754 184.938 76.7434 184.834C76.8554 184.661 77.2443 183.899 77.6077 183.14C77.9707 182.381 78.3 181.76 78.3392 181.76C78.3784 181.76 78.8672 182.103 79.4253 182.522C80.5938 183.4 81.6304 183.961 82.8262 184.361C86.2525 185.507 89.28 184.61 89.28 182.449C89.28 181.024 88.216 180.275 84.72 179.238C81.6586 178.33 80.3672 177.725 79.3597 176.727C79.0074 176.378 78.4549 175.516 78.2526 175C77.9266 174.168 77.8269 172.573 78.0384 171.575C78.2731 170.466 79.0022 169.315 79.9619 168.536C80.4946 168.104 81.6077 167.534 82.4 167.288C84.6922 166.576 87.6446 166.667 90.3584 167.534C91.1533 167.788 93.52 168.912 93.52 169.036C93.52 169.11 93.259 169.704 92.7507 170.788C92.5578 171.2 92.4 171.562 92.4 171.593C92.4 171.624 92.3101 171.837 92.2 172.065C92.0899 172.293 92 172.515 92 172.56C92 172.678 91.9115 172.659 91.6056 172.472C90.5992 171.859 89.1098 171.23 87.8122 170.872C86.6731 170.558 84.8016 170.455 84.0757 170.667C83.4325 170.854 82.9301 171.206 82.667 171.654C82.475 171.98 82.4405 172.127 82.4424 172.6C82.4454 173.29 82.6246 173.667 83.1906 174.176C83.7709 174.698 84.396 174.966 87.1614 175.877C90.3882 176.94 91.1682 177.323 92.2098 178.356C93.0594 179.199 93.4392 179.883 93.6365 180.924Z" fill="#FFFEFC"/>
<path d="M193.476 176.48C193.562 176.949 193.587 178.307 193.593 182.7C193.595 184.573 193.598 186.447 193.6 188.32C192.947 188.32 192.293 188.32 191.64 188.32C190.987 188.32 190.333 188.32 189.68 188.32C189.68 188.027 189.68 187.733 189.68 187.44C189.68 186.956 189.662 186.56 189.639 186.56C189.617 186.56 189.348 186.771 189.041 187.028C187.764 188.101 186.281 188.535 184.145 188.461C183.201 188.428 182.887 188.385 182.358 188.213C180.725 187.683 179.465 186.421 178.989 184.84C178.886 184.495 178.846 184.101 178.847 183.44C178.851 181.979 179.176 181.128 180.073 180.231C180.687 179.616 181.399 179.224 182.457 178.917C183.346 178.66 184.73 178.564 187.591 178.562C188.294 178.561 188.998 178.561 189.701 178.56C189.688 178.361 189.676 178.162 189.663 177.962C189.588 176.801 188.933 175.898 187.903 175.534C186.87 175.17 185.256 175.167 183.92 175.528C183.299 175.695 182.01 176.268 181.606 176.556C181.311 176.766 181.212 176.763 181.127 176.54C181.089 176.441 180.784 175.843 180.449 175.212C180.114 174.58 179.84 174.036 179.84 174.001C179.84 173.915 180.749 173.451 181.87 172.966C183.66 172.19 185.033 171.951 187.27 172.024C188.444 172.062 188.806 172.104 189.43 172.276C190.41 172.546 191.308 173.02 191.947 173.605C192.778 174.367 193.253 175.259 193.476 176.48ZM182.812 182.333C182.589 182.784 182.578 183.655 182.789 184.121C183.2 185.024 184.367 185.517 185.846 185.412C187.536 185.292 188.945 184.481 189.468 183.326C189.632 182.966 189.766 181.94 189.702 181.546C189.688 181.457 189.673 181.369 189.659 181.28C188.829 181.28 187.998 181.28 187.168 181.28C184.982 181.28 184.61 181.298 184.139 181.429C183.434 181.624 183.024 181.904 182.812 182.333Z" fill="#FFFEFC"/>
<path d="M110.32 172.16C110.987 172.16 111.653 172.16 112.32 172.16C112.32 174.853 112.32 177.547 112.32 180.24C112.32 182.933 112.32 185.627 112.32 188.32C111.653 188.32 110.987 188.32 110.32 188.32C109.653 188.32 108.987 188.32 108.32 188.32C108.32 187.908 108.32 187.496 108.32 187.085C108.32 186.405 108.288 185.83 108.25 185.806C108.211 185.782 108.078 185.91 107.952 186.091C107.309 187.019 105.985 187.894 104.68 188.253C103.78 188.5 101.659 188.518 100.882 188.284C98.9275 187.697 97.6138 186.316 97.0632 184.27C96.9923 184.006 96.9216 183.743 96.8509 183.48C96.8402 181.593 96.8296 179.707 96.819 177.82C96.8083 175.933 96.7978 174.047 96.787 172.16C97.4558 172.16 98.1246 172.16 98.7936 172.16C99.4622 172.16 100.131 172.16 100.8 172.16C100.8 173.652 100.8 175.143 100.8 176.634C100.8 179.353 100.833 181.354 100.885 181.734C101.005 182.613 101.35 183.33 101.912 183.865C102.481 184.409 103.067 184.643 104 184.699C105.716 184.802 107.05 184.008 107.798 182.44C107.992 182.033 108.18 181.491 108.231 181.193C108.289 180.852 108.32 179.173 108.32 176.413C108.32 174.996 108.32 173.578 108.32 172.16C108.987 172.16 109.653 172.16 110.32 172.16Z" fill="#FFFEFC"/>
<path d="M207.088 172C207.232 172 207.376 172 207.52 172C207.52 172.64 207.52 173.28 207.52 173.92C207.52 174.56 207.52 175.2 207.52 175.84C207.273 175.84 207.027 175.841 206.78 175.841C205.366 175.844 204.183 176.293 203.318 177.158C202.76 177.716 202.4 178.355 202.166 179.199C202.008 179.769 202 179.994 202 184.058C202 185.479 202 186.899 202 188.32C201.333 188.32 200.667 188.32 200 188.32C199.333 188.32 198.667 188.32 198 188.32C198 185.627 198 182.933 198 180.24C198 177.547 198 174.853 198 172.16C198.667 172.16 199.333 172.16 200 172.16C200.667 172.16 201.333 172.16 202 172.16C202 172.66 202 173.16 202 173.66C202.001 174.16 202.001 174.66 202.001 175.16C202.105 174.987 202.21 174.813 202.314 174.64C202.883 173.697 203.625 173.072 204.836 172.516C205.474 172.223 206.448 172 207.088 172Z" fill="#FFFEFC"/>
<path d="M212.18 172.179C212.84 172.172 213.5 172.164 214.16 172.157C214.16 174.851 214.16 177.545 214.16 180.239C214.16 182.932 214.16 185.626 214.16 188.32C213.493 188.32 212.826 188.32 212.16 188.32C211.493 188.32 210.826 188.32 210.159 188.32C210.166 185.633 210.173 182.947 210.18 180.26C210.186 177.573 210.193 174.887 210.2 172.2C210.86 172.193 211.52 172.186 212.18 172.179Z" fill="#FFFEFC"/>
<path d="M182.812 182.333C183.024 181.904 183.434 181.624 184.139 181.429C184.61 181.298 184.982 181.28 187.168 181.28C187.998 181.28 188.829 181.28 189.659 181.28C189.673 181.369 189.688 181.457 189.702 181.546C189.766 181.94 189.632 182.966 189.468 183.326C188.945 184.481 187.536 185.292 185.846 185.412C184.367 185.517 183.2 185.024 182.789 184.121C182.578 183.655 182.589 182.784 182.812 182.333Z" fill="#002338"/>
<path d="M158.88 119.2C158.912 119.127 158.944 119.053 158.976 118.98C159.193 118.479 159.43 118.254 159.876 118.125C160.212 118.027 160.394 118.016 160.666 118.077C161.522 118.269 161.707 118.445 161.876 119.232C161.977 119.705 161.998 120.601 162 129.36C162 133.173 162 136.987 162 140.8C162 141.093 162 141.387 162 141.68C162 143.173 162 144.667 162 146.16C161.982 148.467 161.965 150.773 161.947 153.08C161.929 155.387 161.912 157.693 161.894 160C161.392 160 160.889 160 160.387 160C159.885 160 159.382 160 158.88 160C158.88 146.4 158.88 132.8 158.88 119.2Z" fill="#D1D631"/>
<path d="M156.576 121.235C156.589 121.32 156.598 129.5 156.596 139.414C156.592 157.36 156.592 157.439 156.431 157.659C156.199 157.976 155.716 158.189 155.143 158.226C154.72 158.253 154.594 158.228 154.303 158.057C153.884 157.81 153.607 157.5 153.51 157.169C153.403 156.804 153.411 121.522 153.518 120.964C153.664 120.204 154.137 119.88 155.02 119.936C155.64 119.976 156.127 120.186 156.278 120.48C156.446 120.806 156.55 121.07 156.576 121.235Z" fill="#D1D631"/>
<path d="M148.24 125.12C148.28 125.056 148.32 124.993 148.36 124.929C148.426 124.824 148.48 124.63 148.48 124.497C148.48 124.322 148.557 124.189 148.761 124.009C149.102 123.71 149.332 123.64 149.96 123.641C150.622 123.643 150.923 123.84 151.36 124.56C151.387 125.627 151.413 126.693 151.44 127.76C151.413 130.4 151.387 133.04 151.36 135.68C151.387 137.173 151.413 138.667 151.44 140.16C151.413 140.267 151.387 140.373 151.36 140.48C151.36 140.587 151.36 140.693 151.36 140.8C151.387 140.853 151.413 140.907 151.44 140.96C151.413 145.387 151.387 149.813 151.36 154.24C151.323 154.327 151.286 154.413 151.25 154.5C151.189 154.643 151.027 154.841 150.64 155.12C150.426 155.121 150.212 155.121 149.999 155.122C149.646 155.123 149.286 155.087 149.04 154.96C148.96 154.896 148.88 154.832 148.8 154.769C148.667 154.664 148.507 154.452 148.442 154.298C148.311 153.983 148.318 154.66 148.327 143.08C148.33 139.032 148.33 135.324 148.328 134.84C148.313 131.865 148.324 130.538 148.366 130.47C148.392 130.428 148.372 130.342 148.32 130.28C148.268 130.218 148.247 130.133 148.273 130.092C148.364 129.944 148.384 127.813 148.296 127.671C148.236 127.576 148.235 127.5 148.292 127.426C148.438 127.237 148.401 125.575 148.24 125.12Z" fill="#D1D631"/>
<path d="M164.48 152.16C164.507 143.573 164.533 134.987 164.56 126.4C164.56 126.335 164.56 126.269 164.56 126.204C164.56 125.756 165.523 125.224 166.196 125.299C166.729 125.359 167.139 125.595 167.297 125.933C167.373 126.094 167.454 126.427 167.52 127.12C167.52 128.042 167.52 128.963 167.52 129.885C167.52 131.571 167.549 132.632 167.595 132.603C167.636 132.578 167.692 132.594 167.719 132.639C167.747 132.683 167.716 132.72 167.652 132.72C167.552 132.72 167.532 133.029 167.518 134.78C167.488 138.613 167.51 139.615 167.62 139.56C167.698 139.52 167.699 139.532 167.624 139.615C167.484 139.769 167.5 140.006 167.66 140.138C167.707 140.176 167.753 140.215 167.8 140.253C167.753 140.238 167.707 140.224 167.66 140.209C167.545 140.173 167.52 140.215 167.52 140.442C167.52 140.611 167.559 140.72 167.62 140.721C167.695 140.722 167.693 140.74 167.613 140.79C167.554 140.828 167.517 140.944 167.53 141.049C167.544 141.154 167.524 141.291 167.485 141.352C167.439 141.426 167.459 141.496 167.542 141.556C167.656 141.64 167.655 141.657 167.534 141.741C167.41 141.827 167.413 141.845 167.56 141.966C167.671 142.058 167.69 142.11 167.62 142.136C167.493 142.184 167.489 142.4 167.615 142.4C167.668 142.4 167.642 142.45 167.558 142.511C167.433 142.603 167.424 142.644 167.507 142.744C167.565 142.814 167.576 142.885 167.533 142.912C167.492 142.938 167.455 143.81 167.44 146.88C167.44 146.984 167.44 147.088 167.44 147.192C167.44 147.414 167.48 147.518 167.58 147.557C167.713 147.609 167.713 147.617 167.578 147.716C167.447 147.812 167.441 147.954 167.49 149.61C167.525 150.813 167.513 151.59 167.36 152.56C167.309 152.585 167.258 152.61 167.206 152.635C167.11 152.682 167.067 152.765 167.091 152.857C167.141 153.05 166.74 153.2 166.172 153.2C165.544 153.2 165.061 152.903 164.48 152.16Z" fill="#D1D631"/>
<path d="M169.92 129.28C169.936 129.175 169.951 129.07 169.966 128.965C170.018 128.61 170.302 128.345 170.927 128.069C171.201 127.947 171.373 127.921 171.625 127.963C172.066 128.036 172.197 128.108 172.72 128.56C172.757 128.702 172.794 128.843 172.832 128.985C172.914 129.297 172.935 129.777 172.88 132.16C172.88 133.013 172.88 133.867 172.88 134.72C172.88 135.238 172.88 135.756 172.881 136.274C172.881 137.217 172.912 137.845 173.04 137.92C173.016 137.935 172.991 137.95 172.966 137.965C172.923 137.991 172.907 139.087 172.96 143.28C172.96 143.307 172.96 143.333 172.96 143.36C172.94 143.385 172.92 143.411 172.9 143.436C172.867 143.478 172.849 144.342 172.88 147.2C172.864 147.267 172.847 147.333 172.831 147.4C172.797 147.537 172.815 147.6 172.887 147.6C172.968 147.6 172.971 147.621 172.896 147.696C172.762 147.829 172.766 148.507 172.9 148.438C172.977 148.398 172.979 148.413 172.908 148.502C172.857 148.565 172.812 148.874 172.8 149.76C172.803 149.78 172.805 149.8 172.808 149.82C172.823 149.932 172.361 150.387 172.104 150.514C171.542 150.791 170.65 150.62 170.189 150.149C170.086 150.043 169.983 149.938 169.88 149.832C169.893 142.982 169.907 136.131 169.92 129.28Z" fill="#D1D631"/>
<path d="M174.72 147.04C174.739 147.04 174.757 147.04 174.775 147.04C174.806 147.04 174.842 143.512 174.88 131.36C174.908 131.268 174.936 131.176 174.965 131.084C175.119 130.583 175.641 130.343 176.8 130.24C176.953 130.317 177.107 130.393 177.26 130.47C177.908 130.793 177.968 130.955 177.92 132.24C177.922 132.887 177.924 133.533 177.927 134.18C177.93 135.247 177.929 136.372 177.924 136.68C177.919 136.988 177.916 137.411 177.92 138C177.947 138.107 177.973 138.213 178 138.32C177.985 138.32 177.969 138.32 177.954 138.32C177.929 138.32 177.911 139.058 177.92 141.6C177.92 142.053 177.92 142.507 177.92 142.96C177.92 144.373 177.92 145.787 177.92 147.2C177.923 147.22 177.925 147.24 177.928 147.26C177.932 147.293 177.904 147.356 177.865 147.4C177.826 147.444 177.715 147.593 177.618 147.731C177.521 147.869 177.297 148.04 177.119 148.111C176.748 148.26 175.991 148.281 175.735 148.151C175.39 147.975 174.72 147.241 174.72 147.04Z" fill="#D1D631"/>
<path d="M140.64 131.12C140.656 131.148 140.671 131.176 140.687 131.203C140.712 131.249 140.748 131.825 140.8 133.68C140.827 134.48 140.853 135.28 140.88 136.08C140.853 137.573 140.827 139.067 140.8 140.56C140.8 141.627 140.8 142.693 140.8 143.76C140.785 144.033 140.771 144.307 140.757 144.58C140.733 145.031 140.715 145.985 140.72 148C140.668 148.092 140.617 148.183 140.565 148.275C140.198 148.93 139.153 149.232 138.528 148.864C138.147 148.64 137.93 148.36 137.845 147.984C137.749 147.558 137.741 132.49 137.837 131.683C137.912 131.042 137.935 130.988 138.24 130.683C138.348 130.575 138.455 130.468 138.563 130.36C138.809 130.36 139.055 130.36 139.301 130.36C139.548 130.36 139.794 130.36 140.04 130.36C140.14 130.463 140.24 130.565 140.34 130.668C140.505 130.837 140.64 131.008 140.64 131.12Z" fill="#D1D631"/>
<path d="M142.8 130.64C142.842 130.627 142.883 130.614 142.925 130.601C142.994 130.579 143.03 130.529 143.006 130.49C142.907 130.329 143.149 129.926 143.492 129.68C143.848 129.425 143.872 129.419 144.488 129.462C145.001 129.497 145.12 129.529 145.12 129.635C145.12 129.707 145.176 129.852 145.245 129.957C145.38 130.162 145.525 131.004 145.531 131.617C145.534 131.843 145.58 132.026 145.76 132.16C145.76 132.187 145.76 132.213 145.76 132.24C145.72 132.27 145.68 132.3 145.64 132.33C145.549 132.398 145.52 132.592 145.52 133.132C145.52 133.696 145.545 133.853 145.76 133.92C145.76 134 145.76 134.08 145.76 134.16C145.721 134.172 145.681 134.184 145.642 134.197C145.539 134.229 145.524 135.035 145.523 140.399C145.523 143.789 145.5 146.653 145.472 146.763C145.444 146.876 145.465 147.013 145.521 147.081C145.581 147.153 145.592 147.239 145.55 147.3C145.511 147.355 145.471 147.704 145.46 148.075C145.453 148.299 145.446 148.524 145.44 148.749C145.313 148.868 145.186 148.986 145.06 149.105C144.851 149.3 144.689 149.492 144.72 149.6C144.55 149.592 144.38 149.585 144.21 149.577C143.794 149.558 143.644 149.512 143.403 149.328C143.24 149.203 143.038 148.989 142.953 148.851C142.805 148.608 142.801 148.32 142.8 130.64ZM143.085 130.971C142.928 131.341 142.904 136.766 143.06 136.823C143.14 136.852 143.14 136.893 143.06 137.028C142.944 137.225 142.935 140.935 143.051 141.006C143.089 141.03 143.12 141.119 143.12 141.205C143.12 141.29 143.174 141.36 143.24 141.36C143.31 141.36 143.36 141.433 143.36 141.534C143.36 141.629 143.411 141.764 143.472 141.834C143.534 141.903 143.597 142.136 143.612 142.35C143.639 142.728 143.633 142.741 143.409 142.766C142.938 142.818 142.964 142.636 142.983 145.751C142.989 146.711 142.994 147.67 143 148.63C143.08 148.714 143.16 148.798 143.24 148.882C143.777 149.447 144.296 149.517 144.708 149.081C144.852 148.928 144.948 148.766 144.921 148.722C144.894 148.678 144.872 148.182 144.873 147.621C144.874 147.059 144.872 145.43 144.868 144C144.859 140.925 144.857 141.332 144.889 138.462C144.909 136.73 144.891 136.139 144.818 136.066C144.7 135.948 144.689 135.583 144.8 135.472C144.852 135.421 144.854 135.103 144.806 134.556C144.766 134.096 144.748 133.54 144.768 133.32C144.786 133.1 144.817 132.65 144.836 132.32C144.855 131.99 144.894 131.414 144.923 131.04C145.019 129.794 145.042 129.902 144.636 129.688C144.188 129.451 143.96 129.492 143.518 129.891C143.271 130.115 143.2 130.237 143.2 130.44C143.2 130.584 143.148 130.823 143.085 130.971Z" fill="#D4DB2B"/>
<path d="M182.644 133.583C182.681 133.702 182.704 136.308 182.695 139.374C182.689 141.232 182.684 143.09 182.678 144.948C182.57 145.054 182.461 145.161 182.352 145.267C182.102 145.512 181.94 145.599 181.65 145.643C181.016 145.738 180.065 145.392 179.784 144.965C179.661 144.778 179.649 144.29 179.645 139.493C179.64 134.098 179.675 133.355 179.948 133.054C180.164 132.815 181.132 132.529 181.495 132.598C182.081 132.708 182.475 133.046 182.644 133.583Z" fill="#D1D631"/>
<path d="M135.84 134.4C135.862 134.818 135.877 137.302 135.874 139.92C135.868 144.796 135.853 145.04 135.562 145.04C135.499 145.04 135.402 145.136 135.344 145.253C135.204 145.538 134.556 145.739 134.194 145.608C134.059 145.56 133.865 145.52 133.764 145.52C133.652 145.52 133.44 145.382 133.229 145.171C133.113 145.054 132.996 144.938 132.88 144.821C132.88 142.902 132.88 140.983 132.88 139.064C132.88 137.146 132.88 135.227 132.88 133.308C132.941 133.251 133.001 133.194 133.062 133.137C133.334 132.881 133.876 132.72 134.462 132.72C134.899 132.72 135.029 132.754 135.252 132.924C135.676 133.247 135.795 133.546 135.84 134.4Z" fill="#D1D631"/>
<path d="M143.085 130.971C143.148 130.823 143.2 130.584 143.2 130.44C143.2 130.237 143.271 130.115 143.518 129.891C143.96 129.492 144.188 129.451 144.636 129.688C145.042 129.902 145.019 129.794 144.923 131.04C144.894 131.414 144.855 131.99 144.836 132.32C144.817 132.65 144.786 133.1 144.768 133.32C144.748 133.54 144.766 134.096 144.806 134.556C144.854 135.103 144.852 135.421 144.8 135.472C144.689 135.583 144.7 135.948 144.818 136.066C144.891 136.139 144.909 136.73 144.889 138.462C144.857 141.332 144.859 140.925 144.868 144C144.872 145.43 144.874 147.059 144.873 147.621C144.872 148.182 144.894 148.678 144.921 148.722C144.948 148.766 144.852 148.928 144.708 149.081C144.296 149.517 143.777 149.447 143.24 148.882C143.16 148.798 143.08 148.714 143 148.63C142.994 147.67 142.989 146.711 142.983 145.751C142.964 142.636 142.938 142.818 143.409 142.766C143.633 142.741 143.639 142.728 143.612 142.35C143.597 142.136 143.534 141.903 143.472 141.834C143.411 141.764 143.36 141.629 143.36 141.534C143.36 141.433 143.31 141.36 143.24 141.36C143.174 141.36 143.12 141.29 143.12 141.205C143.12 141.119 143.089 141.03 143.051 141.006C142.935 140.935 142.944 137.225 143.06 137.028C143.14 136.893 143.14 136.852 143.06 136.823C142.904 136.766 142.928 131.341 143.085 130.971Z" fill="#D1D631"/>
<path d="M184.32 135.68C184.353 135.596 184.387 135.512 184.42 135.428C184.475 135.289 184.588 135.136 184.671 135.088C184.754 135.039 184.913 134.918 185.024 134.819C185.207 134.655 185.29 134.64 185.898 134.667C186.768 134.705 186.903 134.806 187.36 135.76C187.36 137.893 187.36 140.027 187.36 142.16C187.344 142.266 187.329 142.372 187.313 142.478C187.288 142.652 187.195 142.886 187.108 142.997C186.893 143.271 186.193 143.468 185.588 143.424C184.945 143.377 184.766 143.233 184.387 142.46C184.299 142.28 184.314 136.253 184.403 136.198C184.44 136.175 184.437 136.049 184.32 135.68Z" fill="#D1D631"/>
<path d="M131.122 137.602C131.234 137.947 131.265 138.339 131.272 139.451C131.275 139.921 131.277 140.391 131.28 140.861C131.175 140.956 131.07 141.051 130.965 141.146C130.424 141.635 129.725 141.644 129.014 141.172C128.779 141.017 128.486 140.737 128.363 140.55C128.288 140.436 128.212 140.323 128.137 140.209C128.152 139.772 128.166 139.335 128.181 138.899C128.195 138.462 128.209 138.025 128.224 137.588C128.327 137.484 128.429 137.379 128.532 137.275C128.701 137.103 128.904 136.962 128.981 136.961C129.059 136.961 129.191 136.917 129.275 136.864C129.394 136.79 129.476 136.791 129.646 136.868C129.798 136.938 129.89 136.942 129.948 136.884C130.072 136.76 130.24 136.784 130.631 136.984C130.937 137.14 130.999 137.219 131.122 137.602Z" fill="#D1D631"/>
<path d="M188.64 139.28C188.654 139.073 188.669 138.867 188.683 138.66C188.707 138.319 188.768 137.9 188.82 137.728C188.935 137.341 189.392 136.882 189.673 136.872C190.526 136.843 190.71 136.854 190.938 136.95C191.079 137.009 191.268 137.162 191.52 137.52C191.576 137.66 191.632 137.8 191.687 137.94C191.832 138.302 191.851 138.492 191.827 139.326C191.818 139.648 191.809 139.971 191.8 140.293C191.689 140.44 191.578 140.587 191.467 140.734C191.003 141.348 190.686 141.473 189.68 141.44C189.578 141.4 189.476 141.36 189.374 141.32C188.881 141.128 188.708 140.648 188.64 139.28Z" fill="#D1D631"/>
<path d="M167.44 146.88C167.455 143.81 167.492 142.938 167.533 142.912C167.576 142.885 167.565 142.814 167.507 142.744C167.424 142.644 167.433 142.603 167.558 142.511C167.642 142.45 167.668 142.4 167.615 142.4C167.489 142.4 167.493 142.184 167.62 142.136C167.69 142.11 167.671 142.058 167.56 141.966C167.413 141.845 167.41 141.827 167.534 141.741C167.655 141.657 167.656 141.64 167.542 141.556C167.459 141.496 167.439 141.426 167.485 141.352C167.524 141.291 167.544 141.154 167.53 141.049C167.517 140.944 167.554 140.828 167.613 140.79C167.693 140.74 167.695 140.722 167.62 140.721C167.559 140.72 167.52 140.611 167.52 140.442C167.52 140.215 167.545 140.173 167.66 140.209C167.707 140.224 167.753 140.238 167.8 140.253C167.753 140.215 167.707 140.176 167.66 140.138C167.5 140.006 167.484 139.769 167.624 139.615C167.699 139.532 167.698 139.52 167.62 139.56C167.51 139.615 167.488 138.613 167.518 134.78C167.532 133.029 167.552 132.72 167.652 132.72C167.716 132.72 167.747 132.683 167.719 132.639C167.692 132.594 167.636 132.578 167.595 132.603C167.549 132.632 167.52 131.571 167.52 129.885C167.52 128.963 167.52 128.042 167.52 127.12C167.641 126.547 167.651 126.574 167.691 127.12C167.716 127.45 167.713 127.746 167.685 127.779C167.657 127.811 167.68 128.241 167.735 128.733C167.809 129.392 167.813 129.657 167.747 129.736C167.68 129.817 167.695 129.883 167.808 130.009C167.95 130.166 167.95 130.18 167.818 130.276C167.693 130.368 167.684 130.491 167.727 131.489C167.754 132.1 167.785 133.698 167.796 135.04C167.807 136.382 167.844 137.543 167.876 137.619C167.915 137.708 167.898 137.774 167.828 137.8C167.743 137.833 167.724 138.07 167.741 138.901C167.752 139.483 167.761 140.05 167.761 140.16C167.761 140.27 167.764 140.833 167.766 141.412C167.768 142.06 167.738 142.484 167.687 142.516C167.63 142.551 167.633 142.615 167.697 142.717C167.769 142.832 167.768 142.895 167.691 142.986C167.624 143.067 167.619 143.122 167.676 143.158C167.722 143.186 167.76 143.362 167.76 143.549C167.76 143.735 167.802 143.93 167.854 143.982C167.926 144.054 167.919 144.109 167.823 144.218C167.73 144.324 167.705 144.495 167.725 144.898C167.739 145.194 167.717 145.457 167.676 145.483C167.628 145.512 167.628 145.584 167.677 145.674C167.719 145.754 167.756 146.058 167.757 146.349C167.758 146.526 167.759 146.703 167.76 146.88C167.653 146.88 167.547 146.88 167.44 146.88Z" fill="#0D2927"/>
<path d="M144.72 149.6C144.689 149.492 144.851 149.3 145.06 149.105C145.186 148.986 145.313 148.868 145.44 148.749C145.446 148.524 145.453 148.299 145.46 148.075C145.471 147.704 145.511 147.355 145.55 147.3C145.592 147.239 145.581 147.153 145.521 147.081C145.465 147.013 145.444 146.876 145.472 146.763C145.5 146.653 145.523 143.789 145.523 140.399C145.524 135.035 145.539 134.229 145.642 134.197C145.681 134.184 145.721 134.172 145.76 134.16C145.76 137.28 145.76 140.4 145.76 143.52C145.76 145.173 145.76 146.827 145.76 148.48C145.724 148.58 145.688 148.68 145.651 148.78C145.486 149.236 145.263 149.432 144.72 149.6Z" fill="#D1D631"/>
<path d="M164.56 126.4C164.533 134.987 164.507 143.573 164.48 152.16C164.48 143.6 164.48 135.04 164.48 126.48C164.507 126.453 164.533 126.427 164.56 126.4Z" fill="#0D2927"/>
<path d="M167.36 152.56C167.513 151.59 167.525 150.813 167.49 149.61C167.441 147.954 167.447 147.812 167.578 147.716C167.713 147.617 167.713 147.609 167.58 147.557C167.48 147.518 167.44 147.414 167.44 147.192C167.44 147.088 167.44 146.984 167.44 146.88C167.547 146.88 167.653 146.88 167.76 146.88C167.652 147.101 167.655 147.254 167.699 147.381C167.742 147.503 167.753 147.662 167.726 147.734C167.698 147.807 167.664 148.806 167.65 149.953C167.63 151.706 167.604 152.082 167.493 152.3C167.448 152.387 167.404 152.473 167.36 152.56Z" fill="#1B3122"/>
<path d="M189.68 141.44C190.686 141.473 191.003 141.348 191.467 140.734C191.578 140.587 191.689 140.44 191.8 140.293C191.809 139.971 191.818 139.648 191.827 139.326C191.851 138.492 191.832 138.302 191.687 137.94C191.632 137.8 191.576 137.66 191.52 137.52C191.875 138.075 191.91 138.252 191.946 139C191.969 139.484 191.96 140.032 191.925 140.218C191.852 140.612 191.392 141.216 191.014 141.417C190.756 141.553 189.681 141.62 189.68 141.5C189.68 141.48 189.68 141.46 189.68 141.44Z" fill="#1B3122"/>
<path d="M187.36 142.16C187.36 140.027 187.36 137.893 187.36 135.76C187.423 137.155 187.476 137.632 187.519 137.72C187.562 137.808 187.576 137.988 187.552 138.12C187.527 138.252 187.488 139.215 187.467 140.26C187.445 141.305 187.412 142.16 187.394 142.16C187.383 142.16 187.371 142.16 187.36 142.16Z" fill="#1B3122"/>
<path d="M177.92 138C177.916 137.411 177.919 136.988 177.924 136.68C177.929 136.372 177.93 135.247 177.927 134.18C177.924 133.533 177.922 132.887 177.92 132.24C178.063 132.356 178.094 133.277 178.099 135.112C178.104 137.101 178.081 137.867 178.013 137.923C177.982 137.949 177.951 137.974 177.92 138Z" fill="#1B3122"/>
<path d="M149.04 154.96C149.286 155.087 149.646 155.123 149.999 155.122C150.212 155.121 150.426 155.121 150.64 155.12C150.64 155.44 150.582 155.456 149.9 155.496C149.219 155.536 149.148 155.526 149.009 155.371C148.891 155.24 148.878 155.176 148.949 155.082C148.979 155.041 149.01 155 149.04 154.96Z" fill="#062838"/>
<path d="M172.88 147.2C172.849 144.342 172.867 143.478 172.9 143.436C172.92 143.411 172.94 143.385 172.96 143.36C172.95 144.338 172.978 144.642 173.016 144.665C173.054 144.688 173.067 145.025 173.046 145.414C173.025 145.802 173.015 146.363 173.024 146.66C173.029 146.84 173.035 147.02 173.04 147.2C172.987 147.2 172.933 147.2 172.88 147.2Z" fill="#262100"/>
<path d="M176.8 130.24C175.641 130.343 175.119 130.583 174.965 131.084C174.936 131.176 174.908 131.268 174.88 131.36C174.857 130.866 174.907 130.794 175.254 130.539C175.755 130.171 176.312 130.008 176.598 130.144C176.665 130.176 176.733 130.208 176.8 130.24Z" fill="#1B3122"/>
<path d="M172.96 143.28C172.907 139.087 172.923 137.991 172.966 137.965C172.991 137.95 173.016 137.935 173.04 137.92C173.067 137.92 173.093 137.92 173.12 137.92C173.121 138.478 173.094 138.64 173.061 138.64C172.969 138.64 172.964 139.705 173.055 139.816C173.098 139.869 173.109 139.952 173.08 140C173.05 140.048 173.032 140.527 173.039 141.064C173.067 143.055 173.064 143.28 173.013 143.28C172.995 143.28 172.978 143.28 172.96 143.28Z" fill="#0D2927"/>
<path d="M173.04 137.92C172.912 137.845 172.881 137.217 172.881 136.274C172.88 135.756 172.88 135.238 172.88 134.72C172.96 134.747 173.04 134.773 173.12 134.8C173.053 135.885 173.038 136.234 173.042 136.276C173.092 136.723 173.085 137.532 173.032 137.565C172.994 137.588 172.999 137.678 173.042 137.764C173.068 137.816 173.094 137.868 173.12 137.92C173.093 137.92 173.067 137.92 173.04 137.92Z" fill="#1B3122"/>
<path d="M172.88 134.72C172.88 133.867 172.88 133.013 172.88 132.16C173.066 132.216 173.084 132.379 173.061 132.852C173.016 133.752 173.021 134.498 173.074 134.66C173.09 134.707 173.105 134.753 173.12 134.8C173.04 134.773 172.96 134.747 172.88 134.72Z" fill="#0D2927"/>
<path d="M151.36 154.24C151.387 149.813 151.413 145.387 151.44 140.96C151.471 151.252 151.453 154.24 151.42 154.24C151.4 154.24 151.38 154.24 151.36 154.24Z" fill="#1B3122"/>
<path d="M145.76 143.52C145.76 140.4 145.76 137.28 145.76 134.16C145.787 137.28 145.813 140.4 145.84 143.52C145.813 143.52 145.787 143.52 145.76 143.52Z" fill="#5A652D"/>
<path d="M172.72 128.56C172.197 128.108 172.066 128.036 171.625 127.963C171.373 127.921 171.201 127.947 170.927 128.069C170.302 128.345 170.018 128.61 169.966 128.965C169.951 129.07 169.936 129.175 169.92 129.28C169.893 129.093 169.867 128.907 169.84 128.72C170.178 128.17 170.679 127.84 171.174 127.84C171.748 127.841 172.143 127.979 172.448 128.286C172.538 128.377 172.629 128.469 172.72 128.56Z" fill="#1B3122"/>
<path d="M177.92 147.2C177.92 145.787 177.92 144.373 177.92 142.96C178.046 143.309 178.071 144.186 178.06 145.3C178.049 146.345 178.013 147.2 177.98 147.2C177.96 147.2 177.94 147.2 177.92 147.2Z" fill="#1B3122"/>
<path d="M145.76 132.16C145.58 132.026 145.534 131.843 145.531 131.617C145.525 131.004 145.38 130.162 145.245 129.957C145.176 129.852 145.12 129.707 145.12 129.635C145.12 129.529 145.001 129.497 144.488 129.462C143.872 129.419 143.848 129.425 143.492 129.68C143.149 129.926 142.907 130.329 143.006 130.49C143.03 130.529 142.994 130.579 142.925 130.601C142.883 130.614 142.842 130.627 142.8 130.64C142.8 130.613 142.8 130.587 142.8 130.56C142.825 130.473 142.85 130.386 142.875 130.299C143.106 129.49 143.4 129.28 144.299 129.28C144.793 129.28 144.872 129.304 145.152 129.534C145.694 129.981 145.756 130.251 145.76 132.16Z" fill="#D1D631"/>
<path d="M172.8 149.76C172.812 148.874 172.857 148.565 172.908 148.502C172.979 148.413 172.977 148.398 172.9 148.438C172.766 148.507 172.762 147.829 172.896 147.696C172.971 147.621 172.968 147.6 172.887 147.6C172.815 147.6 172.797 147.537 172.831 147.4C172.847 147.333 172.864 147.267 172.88 147.2C172.933 147.2 172.987 147.2 173.04 147.2C173.043 147.975 173.047 148.344 173.05 148.52C173.053 148.696 172.998 149.047 172.928 149.3C172.885 149.453 172.843 149.607 172.8 149.76Z" fill="#1B3122"/>
<path d="M140.8 133.68C140.748 131.825 140.712 131.249 140.687 131.203C140.671 131.176 140.656 131.148 140.64 131.12C140.826 131.33 140.88 131.472 140.88 131.571C140.88 131.669 140.916 131.773 140.96 131.8C141.012 131.832 141.014 131.9 140.963 131.994C140.921 132.073 140.867 132.485 140.843 132.909C140.829 133.166 140.814 133.423 140.8 133.68Z" fill="#1B3122"/>
<path d="M145.76 133.92C145.545 133.853 145.52 133.696 145.52 133.132C145.52 132.592 145.549 132.398 145.64 132.33C145.68 132.3 145.72 132.27 145.76 132.24C145.76 132.8 145.76 133.36 145.76 133.92Z" fill="#D1D631"/>
<path d="M145.76 148.48C145.76 146.827 145.76 145.173 145.76 143.52C145.787 143.52 145.813 143.52 145.84 143.52C145.813 145.173 145.787 146.827 145.76 148.48Z" fill="#404824"/>
<path d="M177.92 141.6C177.911 139.058 177.929 138.32 177.954 138.32C177.969 138.32 177.985 138.32 178 138.32C178.117 138.407 178.116 140.953 177.999 141.34C177.973 141.427 177.946 141.513 177.92 141.6Z" fill="#1B3122"/>
<path d="M140.72 148C140.715 145.985 140.733 145.031 140.757 144.58C140.771 144.307 140.785 144.033 140.8 143.76C140.807 147.046 140.789 148 140.764 148C140.75 148 140.735 148 140.72 148Z" fill="#1B3122"/>
<path d="M151.44 140.16C151.413 138.667 151.387 137.173 151.36 135.68C151.453 135.73 151.471 136.738 151.46 137.952C151.453 138.688 151.447 139.424 151.44 140.16Z" fill="#1B3122"/>
<path d="M151.44 127.76C151.413 126.693 151.387 125.627 151.36 124.56C151.478 124.78 151.495 125.465 151.475 126.3C151.464 126.787 151.452 127.273 151.44 127.76Z" fill="#1B3122"/>
<path d="M151.36 140.8C151.36 140.693 151.36 140.587 151.36 140.48C151.427 140.567 151.493 140.654 151.56 140.741C151.527 140.751 151.493 140.76 151.46 140.77C151.427 140.78 151.393 140.79 151.36 140.8Z" fill="#1B3122"/>
</g>
<defs>
<clipPath id="clip0_2_2">
<rect width="320" height="320" fill="white"/>
</clipPath>
</defs>
</svg>
